<svg width="100" height="100" viewBox="0 0 100 100" fill="none" xmlns="http://www.w3.org/2000/svg">
<path d="M46.5485 1.51327C48.4072 -0.504425 51.5928 -0.504424 53.4515 1.51327L58.8284 7.35008C60.0581 8.68486 61.9471 9.19102 63.6793 8.64987L71.2542 6.28349C73.8728 5.46547 76.6316 7.0583 77.2325 9.73504L78.9706 17.4783C79.3681 19.2491 80.7509 20.6319 82.5217 21.0294L90.265 22.7675C92.9417 23.3684 94.5345 26.1272 93.7165 28.7458L91.3501 36.3207C90.809 38.053 91.3151 39.942 92.6499 41.1716L98.4867 46.5485C100.504 48.4072 100.504 51.5928 98.4867 53.4515L92.6499 58.8284C91.3151 60.0581 90.809 61.9471 91.3501 63.6793L93.7165 71.2542C94.5345 73.8728 92.9417 76.6316 90.265 77.2325L82.5217 78.9706C80.7509 79.3681 79.3681 80.7509 78.9706 82.5217L77.2325 90.265C76.6316 92.9417 73.8728 94.5345 71.2542 93.7165L63.6793 91.3501C61.9471 90.809 60.0581 91.3151 58.8284 92.6499L53.4515 98.4867C51.5928 100.504 48.4072 100.504 46.5485 98.4867L41.1716 92.6499C39.942 91.3151 38.0529 90.809 36.3207 91.3501L28.7458 93.7165C26.1272 94.5345 23.3684 92.9417 22.7675 90.265L21.0294 82.5217C20.6319 80.7509 19.2491 79.3681 17.4783 78.9706L9.73504 77.2325C7.0583 76.6316 5.46547 73.8728 6.28349 71.2542L8.64987 63.6793C9.19102 61.9471 8.68486 60.0581 7.35008 58.8284L1.51327 53.4515C-0.504424 51.5928 -0.504425 48.4072 1.51327 46.5485L7.35008 41.1716C8.68486 39.942 9.19102 38.053 8.64987 36.3207L6.28349 28.7458C5.46547 26.1272 7.0583 23.3684 9.73504 22.7675L17.4783 21.0294C19.2491 20.6319 20.6319 19.2491 21.0294 17.4783L22.7675 9.73504C23.3684 7.0583 26.1272 5.46547 28.7458 6.28349L36.3207 8.64987C38.0529 9.19102 39.942 8.68486 41.1716 7.35008L46.5485 1.51327Z" fill="#D78306"/>
</svg>
