<svg width="40" height="40" viewBox="0 0 40 40" fill="none" xmlns="http://www.w3.org/2000/svg">
<path d="M30.7825 40H9.21753C8.93038 40 8.61449 40 8.32734 39.9713L0.0287094 31.6726C-3.8147e-06 31.3855 0 31.0984 0 30.7825V9.21751C0 4.13496 4.13497 0 9.21753 0H30.7825C31.0696 0 31.3855 0.0287054 31.6727 0.0574204L39.9713 8.35605C40 8.6432 40 8.93037 40 9.24623V30.8112C40 35.865 35.865 40 30.7825 40Z" fill="#263388"/>
<path fill-rule="evenodd" clip-rule="evenodd" d="M14.861 13.3153C14.4353 12.8949 13.745 12.8949 13.3193 13.3153C12.8936 13.7356 12.8936 14.4171 13.3193 14.8374L18.5481 20L13.3193 25.1626C12.8936 25.5829 12.8936 26.2644 13.3193 26.6847C13.745 27.1051 14.4353 27.1051 14.861 26.6847L20.0898 21.5222L25.139 26.5075C25.5647 26.9278 26.255 26.9278 26.6807 26.5075C27.1064 26.0871 27.1064 25.4056 26.6807 24.9853L21.6315 20L26.6807 15.0147C27.1064 14.5944 27.1064 13.9129 26.6807 13.4925C26.255 13.0722 25.5647 13.0722 25.139 13.4925L20.0898 18.4778L14.861 13.3153Z" fill="white"/>
</svg>
