<?xml version="1.0" encoding="utf-8"?>
<!-- Generator: Adobe Illustrator 24.1.1, SVG Export Plug-In . SVG Version: 6.00 Build 0)  -->
<svg version="1.1" id="Слой_1" xmlns="http://www.w3.org/2000/svg" xmlns:xlink="http://www.w3.org/1999/xlink" x="0px" y="0px"
	 viewBox="0 0 50 50" style="enable-background:new 0 0 50 50;" xml:space="preserve">
<style type="text/css">
	.st0{fill:#FFFFFF;}
	.st1{fill:#27348B;}
</style>
<g>
	<g>
		<circle class="st0" cx="25" cy="25" r="25"/>
	</g>
	<g>
		<g>
			<path class="st1" d="M17.72,25.94c-0.61,1.2,0.08,1.78,1.67,2.76c1.35,0.83,3.21,1.14,4.41,1.26c-0.49,0.47,1.76-1.69-4.72,4.54
				c-1.37,1.32,0.84,3.43,2.21,2.14l3.72-3.59c1.42,1.37,2.79,2.68,3.72,3.59c1.37,1.29,3.58-0.8,2.23-2.14
				c-0.1-0.1-5.04-4.83-4.74-4.54c1.21-0.12,3.05-0.44,4.38-1.26l0,0c1.59-0.99,2.28-1.56,1.68-2.77c-0.37-0.68-1.35-1.26-2.66-0.27
				c0,0-1.77,1.35-4.62,1.35c-2.85,0-4.62-1.35-4.62-1.35C19.07,24.68,18.08,25.26,17.72,25.94z"/>
			<path class="st1" d="M25,25.14c3.48,0,6.32-2.72,6.32-6.06c0-3.36-2.84-6.08-6.32-6.08c-3.48,0-6.32,2.72-6.32,6.08
				C18.68,22.42,21.52,25.14,25,25.14z M25,16.08c1.71,0,3.1,1.34,3.1,3c0,1.64-1.39,2.98-3.1,2.98c-1.71,0-3.1-1.34-3.1-2.98
				C21.89,17.42,23.29,16.08,25,16.08z"/>
		</g>
	</g>
</g>
</svg>
