<svg width="16" height="16" viewBox="0 0 16 16" fill="none" xmlns="http://www.w3.org/2000/svg">
<path d="M6.82653 0.889326C7.19589 -0.296441 8.80411 -0.296442 9.17347 0.889325L10.2161 4.23669C10.3813 4.76698 10.8551 5.12601 11.3896 5.12601H14.7638C15.959 5.12601 16.456 6.72145 15.489 7.4543L12.7593 9.52308C12.3268 9.85082 12.1459 10.4317 12.311 10.962L13.3537 14.3094C13.7231 15.4952 12.422 16.4812 11.455 15.7484L8.72524 13.6796C8.29279 13.3518 7.70721 13.3518 7.27476 13.6796L4.545 15.7484C3.57801 16.4812 2.27693 15.4952 2.64629 14.3094L3.68896 10.962C3.85414 10.4317 3.67319 9.85082 3.24074 9.52308L0.510979 7.4543C-0.456011 6.72145 0.0409554 5.12601 1.23622 5.12601H4.61039C5.14493 5.12601 5.61867 4.76698 5.78386 4.23669L6.82653 0.889326Z" fill="#CACACA"/>
</svg>
