<svg width="450" height="60" viewBox="0 0 450 60" fill="none" xmlns="http://www.w3.org/2000/svg">
<path fill-rule="evenodd" clip-rule="evenodd" d="M31.1548 31.0668L2.58576 59.5536C1.63149 60.5046 0 59.8315 0 58.4853V31.6532L15.8711 15.8252V31.0668H31.1548Z" fill="#ED6C70"/>
<path fill-rule="evenodd" clip-rule="evenodd" d="M36.2289 0H9.85052L0 9.82365V46.895H37.1754L47.0234 37.0713V10.767C47.0234 4.81877 42.1905 0 36.2289 0ZM31.1523 31.067H15.8711V15.828H31.1548V31.067H31.1523Z" fill="white"/>
<path fill-rule="evenodd" clip-rule="evenodd" d="M31.1548 31.0668L2.58576 59.5536C1.63149 60.5046 0 59.8315 0 58.4853V31.6532L15.8711 15.8252V31.0668H31.1548Z" fill="#ED6C71"/>
<path fill-rule="evenodd" clip-rule="evenodd" d="M31.1548 31.0669L15.8711 46.3085V31.0669H31.1548Z" fill="#C0595C"/>
<path fill-rule="evenodd" clip-rule="evenodd" d="M65.0261 20.8738C63.7665 20.8738 62.6327 20.601 61.622 20.058C60.6113 19.5149 59.8161 18.7602 59.2414 17.7964C58.6643 16.8327 58.377 15.7542 58.377 14.561C58.377 13.3678 58.6643 12.2893 59.2414 11.3255C59.8186 10.3618 60.6113 9.6071 61.622 9.06403C62.6327 8.52096 63.7691 8.24816 65.0261 8.24816C66.2856 8.24816 67.4194 8.52096 68.4301 9.06403C69.4408 9.6071 70.2361 10.3592 70.8107 11.3179C71.3878 12.2765 71.6751 13.3576 71.6751 14.561C71.6751 15.7644 71.3878 16.8454 70.8107 17.8041C70.2335 18.7628 69.4408 19.5149 68.4301 20.058C67.4194 20.601 66.2856 20.8738 65.0261 20.8738ZM65.0261 18.8749C65.8495 18.8749 66.5908 18.6914 67.2501 18.3217C67.9094 17.9545 68.425 17.4395 68.8021 16.7792C69.1792 16.1188 69.3664 15.3794 69.3664 14.561C69.3664 13.7426 69.1792 13.0032 68.8021 12.3428C68.425 11.6825 67.9094 11.1675 67.2501 10.8003C66.5908 10.4332 65.8495 10.2471 65.0261 10.2471C64.2026 10.2471 63.4613 10.4306 62.802 10.8003C62.1427 11.1675 61.6245 11.6825 61.25 12.3428C60.8729 13.0032 60.6857 13.7426 60.6857 14.561C60.6857 15.3794 60.8729 16.1188 61.25 16.7792C61.6271 17.4395 62.1427 17.9545 62.802 18.3217C63.4613 18.6914 64.2026 18.8749 65.0261 18.8749ZM83.1802 10.3516H79.0861V20.6979H76.8108V10.3516H72.7346V8.42153H83.1777V10.3516H83.1802ZM89.7062 15.5247H87.4129V20.6979H85.1555V8.42408H87.4129V13.5615H89.778L93.3232 8.42408H95.7576L91.5404 14.3672L95.9167 20.6979H93.3232L89.7062 15.5247ZM102.974 8.42408C104.043 8.42408 104.977 8.6 105.77 8.9493C106.562 9.30115 107.173 9.80342 107.596 10.4561C108.019 11.1114 108.232 11.889 108.232 12.789C108.232 13.6763 108.019 14.4514 107.596 15.1117C107.173 15.7721 106.565 16.2769 105.77 16.6287C104.977 16.9806 104.043 17.1539 102.974 17.1539H100.185V20.6954H97.8919V8.42408H102.974ZM102.868 15.2264C103.869 15.2264 104.626 15.0148 105.144 14.5941C105.662 14.1735 105.921 13.5717 105.921 12.789C105.921 12.0063 105.662 11.4046 105.144 10.9839C104.626 10.5632 103.869 10.3516 102.868 10.3516H100.188V15.2264H102.868ZM116.277 12.5799C117.76 12.5799 118.896 12.9114 119.691 13.5717C120.484 14.2321 120.882 15.2111 120.882 16.5089C120.882 17.8653 120.445 18.903 119.576 19.622C118.706 20.341 117.483 20.7005 115.908 20.7005H110.598V8.42408H112.855V12.5799H116.277ZM115.8 18.9438C116.693 18.9438 117.383 18.7398 117.865 18.3293C118.347 17.9214 118.588 17.3248 118.588 16.542C118.588 15.0582 117.66 14.3162 115.8 14.3162H112.852V18.9438H115.8ZM122.662 8.42408H124.919V20.6979H122.662V8.42408ZM137.358 10.3516H133.264V20.6979H130.989V10.3516H126.912V8.42153H137.356V10.3516H137.358ZM145.033 12.5799C146.516 12.5799 147.652 12.9114 148.448 13.5717C149.24 14.2321 149.638 15.2111 149.638 16.5089C149.638 17.8653 149.202 18.903 148.332 19.622C147.463 20.341 146.239 20.7005 144.661 20.7005H139.351V8.42408H141.609V12.5799H145.033ZM144.556 18.9438C145.449 18.9438 146.139 18.7398 146.621 18.3293C147.103 17.9214 147.345 17.3248 147.345 16.542C147.345 15.0582 146.416 14.3162 144.556 14.3162H141.609V18.9438H144.556ZM151.421 8.42408H153.678V20.6979H151.421V8.42408ZM157.172 8.42408H159.429V17.1386L166.063 8.42408H168.197V20.6979H165.94V12.0012L159.306 20.6979H157.172V8.42408ZM162.659 7.60056C161.6 7.60056 160.804 7.38384 160.268 6.95295C159.732 6.51952 159.46 5.88977 159.447 5.05859H161.053C161.066 5.49203 161.207 5.82348 161.476 6.05804C161.746 6.29261 162.141 6.40989 162.659 6.40989C163.164 6.40989 163.562 6.29261 163.849 6.05804C164.137 5.82348 164.288 5.49203 164.298 5.05859H165.886C165.873 5.87702 165.594 6.50422 165.047 6.94276C164.501 7.38129 163.706 7.60056 162.659 7.60056ZM181.606 8.42408C182.676 8.42408 183.609 8.6 184.402 8.9493C185.195 9.30115 185.805 9.80342 186.228 10.4561C186.652 11.1114 186.865 11.889 186.865 12.789C186.865 13.6763 186.652 14.4514 186.228 15.1117C185.805 15.7721 185.197 16.2769 184.402 16.6287C183.609 16.9806 182.676 17.1539 181.606 17.1539H178.817V20.6954H176.524V8.42408H181.606ZM181.501 15.2264C182.501 15.2264 183.258 15.0148 183.776 14.5941C184.294 14.1735 184.553 13.5717 184.553 12.789C184.553 12.0063 184.294 11.4046 183.776 10.9839C183.258 10.5632 182.501 10.3516 181.501 10.3516H178.82V15.2264H181.501ZM198.472 18.7857V20.6979H189.209V8.42408H198.223V10.3363H191.503V13.5284H197.467V15.4049H191.503V18.7882H198.472V18.7857ZM209.411 10.3516H203.29L203.308 20.6979H201.05V8.42408H209.431L209.411 10.3516ZM211.368 8.42408H213.625V17.1386L220.259 8.42408H222.393V20.6979H220.136V12.0012L213.502 20.6979H211.368V8.42408ZM231.569 20.8738C230.309 20.8738 229.176 20.601 228.165 20.058C227.154 19.5149 226.359 18.7602 225.784 17.7964C225.207 16.8327 224.92 15.7542 224.92 14.561C224.92 13.3678 225.207 12.2893 225.784 11.3255C226.362 10.3618 227.154 9.6071 228.165 9.06403C229.176 8.52096 230.312 8.24816 231.569 8.24816C232.829 8.24816 233.962 8.52096 234.973 9.06403C235.984 9.6071 236.779 10.3592 237.354 11.3179C237.931 12.2765 238.218 13.3576 238.218 14.561C238.218 15.7644 237.931 16.8454 237.354 17.8041C236.776 18.7628 235.984 19.5149 234.973 20.058C233.962 20.601 232.826 20.8738 231.569 20.8738ZM231.569 18.8749C232.392 18.8749 233.134 18.6914 233.793 18.3217C234.452 17.9545 234.968 17.4395 235.345 16.7792C235.722 16.1188 235.909 15.3794 235.909 14.561C235.909 13.7426 235.722 13.0032 235.345 12.3428C234.968 11.6825 234.452 11.1675 233.793 10.8003C233.134 10.4332 232.392 10.2471 231.569 10.2471C230.746 10.2471 230.004 10.4306 229.345 10.8003C228.686 11.1675 228.17 11.6825 227.793 12.3428C227.416 13.0032 227.229 13.7426 227.229 14.561C227.229 15.3794 227.416 16.1188 227.793 16.7792C228.17 17.4395 228.686 17.9545 229.345 18.3217C230.004 18.6914 230.746 18.8749 231.569 18.8749ZM251.734 8.42408V20.6979H249.441V15.4381H243.054V20.6979H240.76V8.42408H243.054V13.4927H249.441V8.42408H251.734ZM258.332 15.1041H267.154V16.542H258.332V15.1041ZM284.318 8.24816C285.529 8.24816 286.622 8.52096 287.591 9.06403C288.561 9.6071 289.323 10.3592 289.877 11.3179C290.431 12.2765 290.705 13.3576 290.705 14.561C290.705 15.7644 290.428 16.8454 289.877 17.8041C289.325 18.7628 288.563 19.5149 287.591 20.058C286.622 20.601 285.529 20.8738 284.318 20.8738C283.212 20.8738 282.204 20.6469 281.294 20.1905C280.383 19.7342 279.636 19.0968 279.054 18.2783C278.472 17.4599 278.11 16.5318 277.969 15.4916H276.027V20.7005H273.77V8.42408H276.027V13.457H278.002C278.167 12.4397 278.541 11.5372 279.123 10.7468C279.706 9.95895 280.447 9.34449 281.347 8.90596C282.245 8.46742 283.235 8.24816 284.318 8.24816ZM284.318 18.8749C285.082 18.8749 285.778 18.6939 286.401 18.3319C287.024 17.9698 287.512 17.4599 287.866 16.8072C288.22 16.1519 288.394 15.4049 288.394 14.5635C288.394 13.7222 288.217 12.9726 287.866 12.3199C287.512 11.6646 287.024 11.1573 286.401 10.7952C285.778 10.4332 285.085 10.2522 284.318 10.2522C283.554 10.2522 282.864 10.4332 282.245 10.7952C281.627 11.1573 281.14 11.6672 280.781 12.3199C280.421 12.9751 280.242 13.7222 280.242 14.5635C280.242 15.4049 280.421 16.1545 280.781 16.8072C281.14 17.4624 281.627 17.9698 282.245 18.3319C282.864 18.6939 283.554 18.8749 284.318 18.8749ZM301.644 10.3516H295.523L295.541 20.6979H293.284V8.42408H301.664L301.644 10.3516ZM308.665 8.42408C309.734 8.42408 310.668 8.6 311.461 8.9493C312.253 9.30115 312.864 9.80342 313.287 10.4561C313.711 11.1114 313.923 11.889 313.923 12.789C313.923 13.6763 313.711 14.4514 313.287 15.1117C312.864 15.7721 312.256 16.2769 311.461 16.6287C310.668 16.9806 309.734 17.1539 308.665 17.1539H305.876V20.6954H303.583V8.42408H308.665ZM308.56 15.2264C309.56 15.2264 310.317 15.0148 310.835 14.5941C311.353 14.1735 311.612 13.5717 311.612 12.789C311.612 12.0063 311.353 11.4046 310.835 10.9839C310.317 10.5632 309.56 10.3516 308.56 10.3516H305.879V15.2264H308.56ZM324.454 17.8576H318.279L317.063 20.6979H314.698L320.254 8.42408H322.512L328.086 20.6979H325.688L324.454 17.8576ZM323.697 16.0678L321.368 10.7034L319.056 16.0678H323.697Z" fill="white"/>
<path fill-rule="evenodd" clip-rule="evenodd" d="M67.2818 28.1307L63.1763 35.6334C62.8144 36.2976 62.3862 36.7949 61.8877 37.1289C61.3893 37.4592 60.8466 37.6261 60.2595 37.6261C59.7906 37.6261 59.3291 37.5281 58.8676 37.3321L59.2996 35.9782C59.6688 36.0944 59.9752 36.1524 60.2189 36.1524C60.7875 36.1524 61.2527 35.8657 61.6219 35.2886L61.7696 35.0635L58 28.1307H59.8793L62.6741 33.5898L65.5502 28.1307H67.2818ZM75.6037 37.4265V32.726L73.1706 36.6824H72.4396L70.0472 32.7114V37.4265H68.5076V30.3339H70.2761L72.8421 34.7695L75.5299 30.3339H77.1101L77.1248 37.4265H75.6037ZM79.3991 30.3339H81.0864V33.216H84.7194V30.3339H86.4067V37.4265H84.7194V34.6243H81.0864V37.4265H79.3991V30.3339ZM92.1921 32.6715C93.1114 32.6715 93.8129 32.8748 94.3003 33.2813C94.7876 33.6878 95.0313 34.265 95.0313 35.0091C95.0313 35.7895 94.7618 36.392 94.2264 36.8167C93.6911 37.2414 92.9305 37.4483 91.9484 37.441L88.681 37.4265V30.3339H90.3682V32.657L92.1921 32.6715ZM95.9617 30.3339H97.6489V37.4265H95.9617V30.3339ZM91.8007 36.2178C92.2955 36.225 92.6758 36.1234 92.9342 35.9129C93.1963 35.6987 93.3256 35.3902 93.3256 34.9837C93.3256 34.5844 93.2 34.294 92.949 34.1089C92.6979 33.9238 92.3139 33.8258 91.8007 33.8149L90.3682 33.8004V36.2033L91.8007 36.2178ZM106.672 33.9201C106.672 34.0363 106.665 34.1996 106.646 34.4102H100.987C101.086 34.9329 101.345 35.3466 101.762 35.6515C102.179 35.9564 102.7 36.1089 103.324 36.1089C104.117 36.1089 104.767 35.8512 105.284 35.3394L106.189 36.363C105.864 36.7441 105.454 37.0309 104.959 37.2269C104.464 37.4229 103.907 37.5172 103.283 37.5172C102.489 37.5172 101.791 37.3612 101.19 37.0526C100.588 36.7441 100.119 36.3122 99.7903 35.7568C99.4618 35.2051 99.2956 34.5771 99.2956 33.8766C99.2956 33.1869 99.4544 32.5626 99.7756 32.0109C100.097 31.4592 100.54 31.0272 101.105 30.7151C101.673 30.4065 102.312 30.2505 103.025 30.2505C103.726 30.2505 104.354 30.4029 104.908 30.7078C105.461 31.0127 105.893 31.441 106.203 31.9964C106.517 32.5554 106.672 33.1942 106.672 33.9201ZM103.025 31.5826C102.486 31.5826 102.028 31.7387 101.655 32.0544C101.282 32.3702 101.053 32.7877 100.972 33.3103H105.066C104.992 32.7986 104.775 32.3811 104.405 32.0617C104.033 31.7423 103.575 31.5826 103.025 31.5826ZM115.533 37.5209C114.787 37.5209 114.116 37.3648 113.521 37.0563C112.927 36.7477 112.461 36.3158 112.129 35.7604C111.797 35.2087 111.631 34.5808 111.631 33.8802C111.631 33.1797 111.797 32.5554 112.129 32.0073C112.461 31.4592 112.923 31.0272 113.514 30.7187C114.104 30.4102 114.776 30.2541 115.533 30.2541C116.246 30.2541 116.87 30.3956 117.405 30.6788C117.94 30.9619 118.343 31.3684 118.612 31.902L117.317 32.6461C117.11 32.3194 116.851 32.0726 116.541 31.9093C116.231 31.7459 115.891 31.6624 115.522 31.6624C114.891 31.6624 114.37 31.8657 113.957 32.265C113.543 32.6679 113.336 33.2051 113.336 33.8802C113.336 34.5517 113.54 35.0926 113.949 35.4955C114.359 35.8984 114.883 36.098 115.522 36.098C115.891 36.098 116.231 36.0145 116.541 35.8512C116.851 35.6878 117.11 35.441 117.317 35.1143L118.612 35.8584C118.332 36.3884 117.926 36.7985 117.39 37.0853C116.855 37.3757 116.238 37.5209 115.533 37.5209ZM126.853 33.9201C126.853 34.0363 126.846 34.1996 126.827 34.4102H121.167C121.267 34.9329 121.525 35.3466 121.943 35.6515C122.36 35.9564 122.88 36.1089 123.504 36.1089C124.298 36.1089 124.948 35.8512 125.461 35.3394L126.366 36.363C126.041 36.7441 125.631 37.0309 125.136 37.2269C124.642 37.4229 124.084 37.5172 123.46 37.5172C122.666 37.5172 121.969 37.3612 121.367 37.0526C120.765 36.7441 120.296 36.3122 119.967 35.7568C119.639 35.2051 119.473 34.5771 119.473 33.8766C119.473 33.1869 119.631 32.5626 119.953 32.0109C120.274 31.4592 120.717 31.0272 121.282 30.7151C121.85 30.4065 122.489 30.2505 123.202 30.2505C123.903 30.2505 124.531 30.4029 125.085 30.7078C125.638 31.0127 126.07 31.441 126.381 31.9964C126.698 32.5554 126.853 33.1942 126.853 33.9201ZM123.205 31.5826C122.666 31.5826 122.208 31.7387 121.836 32.0544C121.463 32.3702 121.234 32.7877 121.153 33.3103H125.247C125.173 32.7986 124.955 32.3811 124.586 32.0617C124.217 31.7423 123.755 31.5826 123.205 31.5826ZM132.705 30.2541C133.406 30.2541 134.034 30.4029 134.588 30.7042C135.142 31.0054 135.577 31.4301 135.891 31.9782C136.205 32.5263 136.364 33.1615 136.364 33.8766C136.364 34.5953 136.205 35.2305 135.891 35.7822C135.577 36.3339 135.142 36.7623 134.588 37.0635C134.034 37.3648 133.406 37.5136 132.705 37.5136C131.734 37.5136 130.962 37.1942 130.394 36.559V40H128.707V30.3303H130.313V31.2595C130.593 30.922 130.937 30.6715 131.346 30.5009C131.756 30.3376 132.207 30.2541 132.705 30.2541ZM132.513 36.098C133.133 36.098 133.646 35.8947 134.045 35.4882C134.448 35.0817 134.647 34.5445 134.647 33.8802C134.647 33.216 134.448 32.6788 134.045 32.2722C133.643 31.8657 133.133 31.6624 132.513 31.6624C132.107 31.6624 131.741 31.7532 131.42 31.9347C131.095 32.1162 130.84 32.3739 130.649 32.7114C130.46 33.049 130.364 33.4374 130.364 33.8802C130.364 34.323 130.46 34.7114 130.649 35.049C130.837 35.3866 131.095 35.6443 131.42 35.8258C131.745 36.0073 132.111 36.098 132.513 36.098ZM143.268 33.735C144.158 34 144.604 34.5662 144.604 35.4338C144.604 36.0726 144.361 36.5626 143.873 36.9074C143.386 37.2523 142.666 37.4265 141.714 37.4265H138.04V30.3339H141.566C142.448 30.3339 143.139 30.4936 143.633 30.8131C144.128 31.1325 144.376 31.5826 144.376 32.167C144.376 32.5299 144.28 32.8457 144.084 33.1107C143.892 33.3757 143.619 33.5826 143.268 33.735ZM139.646 33.2958H141.415C142.29 33.2958 142.725 32.9982 142.725 32.4065C142.725 31.8294 142.29 31.5426 141.415 31.5426H139.646V33.2958ZM141.577 36.2178C142.504 36.2178 142.969 35.9201 142.969 35.3285C142.969 35.02 142.862 34.7877 142.644 34.6316C142.426 34.4755 142.09 34.3993 141.632 34.3993H139.646V36.2178H141.577ZM146.403 30.3339H148.09V35.0091L152.073 30.3339H153.613V37.4265H151.926V32.7514L147.953 37.4265H146.399V30.3339H146.403ZM159.166 37.5209C158.42 37.5209 157.748 37.3648 157.154 37.0563C156.559 36.7477 156.094 36.3158 155.762 35.7604C155.43 35.2087 155.263 34.5808 155.263 33.8802C155.263 33.1797 155.43 32.5554 155.762 32.0073C156.094 31.4592 156.556 31.0272 157.146 30.7187C157.737 30.4102 158.409 30.2541 159.166 30.2541C159.879 30.2541 160.502 30.3956 161.038 30.6788C161.573 30.9619 161.976 31.3684 162.245 31.902L160.949 32.6461C160.742 32.3194 160.484 32.0726 160.174 31.9093C159.864 31.7459 159.524 31.6624 159.155 31.6624C158.524 31.6624 158.003 31.8657 157.589 32.265C157.176 32.6679 156.969 33.2051 156.969 33.8802C156.969 34.5517 157.176 35.0926 157.582 35.4955C157.992 35.8984 158.516 36.098 159.155 36.098C159.524 36.098 159.864 36.0145 160.174 35.8512C160.484 35.6878 160.742 35.441 160.949 35.1143L162.245 35.8584C161.965 36.3884 161.558 36.7985 161.023 37.0853C160.488 37.3757 159.867 37.5209 159.166 37.5209ZM167.244 32.6715C168.163 32.6715 168.865 32.8748 169.352 33.2813C169.84 33.6878 170.083 34.265 170.083 35.0091C170.083 35.7895 169.814 36.392 169.278 36.8167C168.743 37.2414 167.983 37.4483 167.004 37.441L163.737 37.4265V30.3339H165.424V32.657L167.244 32.6715ZM171.014 30.3339H172.701V37.4265H171.014V30.3339ZM166.853 36.2178C167.348 36.225 167.728 36.1234 167.986 35.9129C168.248 35.6987 168.378 35.3902 168.378 34.9837C168.378 34.5844 168.252 34.294 168.001 34.1089C167.75 33.9238 167.366 33.8258 166.853 33.8149L165.42 33.8004V36.2033L166.853 36.2178ZM175.485 37.5209C175.178 37.5209 174.916 37.4156 174.702 37.2087C174.484 37.0018 174.377 36.7368 174.377 36.4174C174.377 36.0907 174.484 35.8258 174.695 35.6189C174.905 35.4156 175.171 35.314 175.485 35.314C175.799 35.314 176.064 35.4156 176.275 35.6189C176.485 35.8221 176.592 36.0871 176.592 36.4174C176.592 36.7368 176.485 36.9982 176.268 37.2087C176.05 37.4156 175.791 37.5209 175.485 37.5209ZM190.452 33.51H188.832V37.4265H187.115V33.51H185.494L183.102 37.4265H181.075L184.047 32.5808L181.278 28.1307H183.142L185.453 32.0218H187.115V28.1307H188.832V32.0218H190.467L192.789 28.1307H194.654L191.9 32.5916L194.857 37.4265H192.83L190.452 33.51ZM196.205 30.3339H197.892V35.0091L201.876 30.3339H203.415V37.4265H201.728V32.7514L197.755 37.4265H196.201V30.3339H196.205ZM210.917 33.735C211.807 34 212.254 34.5662 212.254 35.4338C212.254 36.0726 212.01 36.5626 211.523 36.9074C211.036 37.2523 210.316 37.4265 209.363 37.4265H205.689V30.3339H209.215C210.098 30.3339 210.788 30.4936 211.283 30.8131C211.778 31.1325 212.025 31.5826 212.025 32.167C212.025 32.5299 211.929 32.8457 211.733 33.1107C211.541 33.3757 211.268 33.5826 210.917 33.735ZM207.296 33.2958H209.064C209.939 33.2958 210.375 32.9982 210.375 32.4065C210.375 31.8294 209.939 31.5426 209.064 31.5426H207.296V33.2958ZM209.226 36.2178C210.153 36.2178 210.618 35.9201 210.618 35.3285C210.618 35.02 210.511 34.7877 210.293 34.6316C210.076 34.4755 209.74 34.3993 209.282 34.3993H207.296V36.2178H209.226ZM217.563 32.6715C218.482 32.6715 219.184 32.8748 219.671 33.2813C220.159 33.6878 220.402 34.265 220.402 35.0091C220.402 35.7895 220.133 36.392 219.597 36.8167C219.062 37.2414 218.302 37.4483 217.319 37.441L214.052 37.4265V30.3339H215.739V32.657L217.563 32.6715ZM221.333 30.3339H223.02V37.4265H221.333V30.3339ZM217.172 36.2178C217.667 36.225 218.047 36.1234 218.305 35.9129C218.567 35.6987 218.697 35.3902 218.697 34.9837C218.697 34.5844 218.571 34.294 218.32 34.1089C218.069 33.9238 217.685 33.8258 217.172 33.8149L215.739 33.8004V36.2033L217.172 36.2178ZM232.043 33.9201C232.043 34.0363 232.036 34.1996 232.018 34.4102H226.358C226.457 34.9329 226.716 35.3466 227.133 35.6515C227.55 35.9564 228.071 36.1089 228.695 36.1089C229.488 36.1089 230.138 35.8512 230.655 35.3394L231.56 36.363C231.235 36.7441 230.825 37.0309 230.33 37.2269C229.836 37.4229 229.278 37.5172 228.654 37.5172C227.86 37.5172 227.162 37.3612 226.561 37.0526C225.959 36.7441 225.49 36.3122 225.161 35.7568C224.833 35.2051 224.667 34.5771 224.667 33.8766C224.667 33.1869 224.825 32.5626 225.147 32.0109C225.468 31.4592 225.911 31.0272 226.476 30.7151C227.044 30.4065 227.683 30.2505 228.396 30.2505C229.097 30.2505 229.725 30.4029 230.279 30.7078C230.832 31.0127 231.264 31.441 231.574 31.9964C231.888 32.5554 232.043 33.1942 232.043 33.9201ZM228.396 31.5826C227.857 31.5826 227.399 31.7387 227.026 32.0544C226.653 32.3702 226.424 32.7877 226.343 33.3103H230.437C230.363 32.7986 230.146 32.3811 229.776 32.0617C229.404 31.7423 228.946 31.5826 228.396 31.5826ZM237.622 30.3339H239.309V33.216H242.942V30.3339H244.63V37.4265H242.942V34.6243H239.309V37.4265H237.622V30.3339ZM250.116 37.5209C249.385 37.5209 248.728 37.3648 248.144 37.0563C247.557 36.7477 247.103 36.3158 246.775 35.7604C246.446 35.2087 246.28 34.5808 246.28 33.8802C246.28 33.1797 246.446 32.5554 246.775 32.0073C247.103 31.4592 247.561 31.0272 248.144 30.7187C248.731 30.4102 249.389 30.2541 250.116 30.2541C250.854 30.2541 251.515 30.4102 252.102 30.7187C252.689 31.0272 253.143 31.4592 253.472 32.0073C253.801 32.5554 253.967 33.1797 253.967 33.8802C253.967 34.5808 253.801 35.2051 253.472 35.7604C253.143 36.3122 252.686 36.7441 252.102 37.0563C251.519 37.3648 250.854 37.5209 250.116 37.5209ZM250.116 36.098C250.736 36.098 251.249 35.8947 251.656 35.4882C252.062 35.0817 252.265 34.5445 252.265 33.8802C252.265 33.216 252.062 32.6788 251.656 32.2722C251.249 31.8657 250.736 31.6624 250.116 31.6624C249.496 31.6624 248.982 31.8657 248.584 32.2722C248.181 32.6788 247.982 33.216 247.982 33.8802C247.982 34.5445 248.181 35.078 248.584 35.4882C248.986 35.8947 249.496 36.098 250.116 36.098ZM260.856 33.735C261.746 34 262.193 34.5662 262.193 35.4338C262.193 36.0726 261.949 36.5626 261.462 36.9074C260.974 37.2523 260.254 37.4265 259.302 37.4265H255.628V30.3339H259.154C260.037 30.3339 260.727 30.4936 261.222 30.8131C261.716 31.1325 261.964 31.5826 261.964 32.167C261.964 32.5299 261.868 32.8457 261.672 33.1107C261.48 33.3757 261.207 33.5826 260.856 33.735ZM257.238 33.2958H259.006C259.881 33.2958 260.317 32.9982 260.317 32.4065C260.317 31.8294 259.881 31.5426 259.006 31.5426H257.238V33.2958ZM259.169 36.2178C260.096 36.2178 260.561 35.9201 260.561 35.3285C260.561 35.02 260.454 34.7877 260.236 34.6316C260.018 34.4755 259.682 34.3993 259.224 34.3993H257.238V36.2178H259.169ZM267.206 37.5209C266.475 37.5209 265.818 37.3648 265.235 37.0563C264.652 36.7477 264.194 36.3158 263.865 35.7604C263.537 35.2087 263.37 34.5808 263.37 33.8802C263.37 33.1797 263.537 32.5554 263.865 32.0073C264.194 31.4592 264.652 31.0272 265.235 30.7187C265.822 30.4102 266.479 30.2541 267.206 30.2541C267.945 30.2541 268.606 30.4102 269.193 30.7187C269.78 31.0272 270.234 31.4592 270.563 32.0073C270.891 32.5554 271.057 33.1797 271.057 33.8802C271.057 34.5808 270.891 35.2051 270.563 35.7604C270.234 36.3122 269.776 36.7441 269.193 37.0563C268.606 37.3648 267.945 37.5209 267.206 37.5209ZM267.206 36.098C267.827 36.098 268.34 35.8947 268.746 35.4882C269.152 35.0817 269.355 34.5445 269.355 33.8802C269.355 33.216 269.152 32.6788 268.746 32.2722C268.34 31.8657 267.827 31.6624 267.206 31.6624C266.586 31.6624 266.073 31.8657 265.674 32.2722C265.272 32.6788 265.072 33.216 265.072 33.8802C265.072 34.5445 265.272 35.078 265.674 35.4882C266.073 35.8947 266.583 36.098 267.206 36.098ZM276.001 37.5209C275.255 37.5209 274.583 37.3648 273.989 37.0563C273.394 36.7477 272.929 36.3158 272.597 35.7604C272.265 35.2087 272.098 34.5808 272.098 33.8802C272.098 33.1797 272.265 32.5554 272.597 32.0073C272.929 31.4592 273.391 31.0272 273.981 30.7187C274.572 30.4102 275.244 30.2541 276.001 30.2541C276.714 30.2541 277.337 30.3956 277.873 30.6788C278.408 30.9619 278.811 31.3684 279.08 31.902L277.784 32.6461C277.577 32.3194 277.319 32.0726 277.009 31.9093C276.699 31.7459 276.359 31.6624 275.99 31.6624C275.359 31.6624 274.838 31.8657 274.424 32.265C274.011 32.6679 273.804 33.2051 273.804 33.8802C273.804 34.5517 274.007 35.0926 274.417 35.4955C274.827 35.8984 275.351 36.098 275.99 36.098C276.359 36.098 276.699 36.0145 277.009 35.8512C277.319 35.6878 277.577 35.441 277.784 35.1143L279.08 35.8584C278.8 36.3884 278.393 36.7985 277.858 37.0853C277.323 37.3757 276.702 37.5209 276.001 37.5209ZM286.28 31.7423H283.754V37.4265H282.067V31.7423H279.527V30.3339H286.28V31.7423ZM287.509 30.3339H289.196V35.0091L293.18 30.3339H294.72V37.4265H293.032V32.7514L289.06 37.4265H287.505V30.3339H287.509ZM297.503 37.5209C297.197 37.5209 296.935 37.4156 296.721 37.2087C296.503 37.0018 296.396 36.7368 296.396 36.4174C296.396 36.0907 296.503 35.8258 296.713 35.6189C296.924 35.4156 297.19 35.314 297.503 35.314C297.817 35.314 298.083 35.4156 298.294 35.6189C298.504 35.8221 298.611 36.0871 298.611 36.4174C298.611 36.7368 298.504 36.9982 298.286 37.2087C298.072 37.4156 297.81 37.5209 297.503 37.5209ZM308.583 37.5608C307.62 37.5608 306.752 37.3539 305.977 36.9437C305.201 36.5336 304.596 35.9601 304.153 35.2305C303.71 34.5009 303.492 33.6842 303.492 32.7804C303.492 31.8766 303.714 31.0599 304.153 30.3303C304.596 29.6007 305.201 29.0272 305.977 28.6171C306.752 28.2069 307.62 28 308.583 28C309.547 28 310.415 28.2069 311.19 28.6171C311.965 29.0272 312.571 29.5971 313.014 30.323C313.457 31.049 313.675 31.8693 313.675 32.7804C313.675 33.6915 313.453 34.5118 313.014 35.2378C312.571 35.9637 311.965 36.5336 311.19 36.9437C310.415 37.3539 309.547 37.5608 308.583 37.5608ZM308.583 36.0436C309.215 36.0436 309.78 35.9056 310.285 35.6261C310.791 35.3466 311.186 34.9583 311.474 34.4573C311.762 33.9564 311.906 33.3975 311.906 32.7768C311.906 32.1561 311.762 31.5971 311.474 31.0962C311.186 30.5953 310.791 30.2069 310.285 29.9274C309.78 29.6479 309.215 29.51 308.583 29.51C307.952 29.51 307.387 29.6479 306.881 29.9274C306.375 30.2069 305.98 30.5953 305.692 31.0962C305.404 31.5971 305.26 32.1561 305.26 32.7768C305.26 33.3975 305.404 33.9564 305.692 34.4573C305.98 34.9583 306.375 35.3466 306.881 35.6261C307.383 35.9056 307.952 36.0436 308.583 36.0436ZM321.144 31.7423H318.618V37.4265H316.931V31.7423H314.391V30.3339H321.144V31.7423ZM325.371 34.5844H324.06V37.4265H322.373V30.3339H324.06V33.2015H325.412L327.546 30.3339H329.355L326.733 33.7459L329.528 37.4229H327.542L325.371 34.5844ZM334.719 30.2541C335.421 30.2541 336.048 30.4029 336.602 30.7042C337.156 31.0054 337.592 31.4301 337.906 31.9782C338.219 32.5263 338.378 33.1615 338.378 33.8766C338.378 34.5953 338.219 35.2305 337.906 35.7822C337.592 36.3339 337.156 36.7623 336.602 37.0635C336.048 37.3648 335.421 37.5136 334.719 37.5136C333.748 37.5136 332.977 37.1942 332.408 36.559V40H330.721V30.3303H332.327V31.2595C332.608 30.922 332.951 30.6715 333.361 30.5009C333.774 30.3376 334.225 30.2541 334.719 30.2541ZM334.531 36.098C335.151 36.098 335.665 35.8947 336.063 35.4882C336.466 35.0817 336.665 34.5445 336.665 33.8802C336.665 33.216 336.466 32.6788 336.063 32.2722C335.661 31.8657 335.151 31.6624 334.531 31.6624C334.125 31.6624 333.759 31.7532 333.438 31.9347C333.113 32.1162 332.859 32.3739 332.667 32.7114C332.478 33.049 332.382 33.4374 332.382 33.8802C332.382 34.323 332.478 34.7114 332.667 35.049C332.855 35.3866 333.113 35.6443 333.438 35.8258C333.763 36.0073 334.125 36.098 334.531 36.098ZM343.569 32.6715C344.488 32.6715 345.19 32.8748 345.677 33.2813C346.165 33.6878 346.408 34.265 346.408 35.0091C346.408 35.7895 346.139 36.392 345.604 36.8167C345.068 37.2414 344.308 37.4483 343.326 37.441L340.058 37.4265V30.3339H341.745V32.657L343.569 32.6715ZM347.339 30.3339H349.026V37.4265H347.339V30.3339ZM343.178 36.2178C343.673 36.225 344.053 36.1234 344.311 35.9129C344.573 35.6987 344.703 35.3902 344.703 34.9837C344.703 34.5844 344.577 34.294 344.326 34.1089C344.075 33.9238 343.691 33.8258 343.178 33.8149L341.745 33.8004V36.2033L343.178 36.2178ZM357.008 31.7423H354.483V37.4265H352.796V31.7423H350.256V30.3339H357.008V31.7423ZM361.749 32.6715C362.668 32.6715 363.37 32.8748 363.857 33.2813C364.344 33.6878 364.588 34.265 364.588 35.0091C364.588 35.7895 364.319 36.392 363.783 36.8167C363.248 37.2414 362.487 37.4483 361.505 37.441L358.238 37.4265V30.3339H359.925V32.657L361.749 32.6715ZM365.518 30.3339H367.206V37.4265H365.518V30.3339ZM361.357 36.2178C361.852 36.225 362.233 36.1234 362.491 35.9129C362.753 35.6987 362.882 35.3902 362.882 34.9837C362.882 34.5844 362.757 34.294 362.506 34.1089C362.255 33.9238 361.871 33.8258 361.357 33.8149L359.925 33.8004V36.2033L361.357 36.2178ZM376.233 33.9201C376.233 34.0363 376.225 34.1996 376.207 34.4102H370.547C370.647 34.9329 370.905 35.3466 371.322 35.6515C371.74 35.9564 372.26 36.1089 372.884 36.1089C373.678 36.1089 374.328 35.8512 374.845 35.3394L375.749 36.363C375.424 36.7441 375.014 37.0309 374.52 37.2269C374.025 37.4229 373.467 37.5172 372.843 37.5172C372.05 37.5172 371.352 37.3612 370.75 37.0526C370.148 36.7441 369.679 36.3122 369.351 35.7568C369.022 35.2051 368.856 34.5771 368.856 33.8766C368.856 33.1869 369.015 32.5626 369.336 32.0109C369.657 31.4592 370.1 31.0272 370.665 30.7151C371.234 30.4065 371.872 30.2505 372.585 30.2505C373.287 30.2505 373.914 30.4029 374.468 30.7078C375.022 31.0127 375.454 31.441 375.764 31.9964C376.078 32.5554 376.233 33.1942 376.233 33.9201ZM372.585 31.5826C372.046 31.5826 371.588 31.7387 371.215 32.0544C370.842 32.3702 370.613 32.7877 370.532 33.3103H374.627C374.553 32.7986 374.335 32.3811 373.966 32.0617C373.593 31.7423 373.135 31.5826 372.585 31.5826ZM385.81 30.2541C386.511 30.2541 387.139 30.4029 387.693 30.7042C388.247 31.0054 388.682 31.4301 388.996 31.9782C389.31 32.5263 389.469 33.1615 389.469 33.8766C389.469 34.5953 389.31 35.2305 388.996 35.7822C388.682 36.3339 388.247 36.7623 387.693 37.0635C387.139 37.3648 386.511 37.5136 385.81 37.5136C384.839 37.5136 384.067 37.1942 383.499 36.559V40H381.811V30.3303H383.418V31.2595C383.698 30.922 384.041 30.6715 384.451 30.5009C384.861 30.3376 385.315 30.2541 385.81 30.2541ZM385.622 36.098C386.242 36.098 386.755 35.8947 387.154 35.4882C387.556 35.0817 387.756 34.5445 387.756 33.8802C387.756 33.216 387.556 32.6788 387.154 32.2722C386.751 31.8657 386.242 31.6624 385.622 31.6624C385.216 31.6624 384.85 31.7532 384.529 31.9347C384.208 32.1162 383.949 32.3739 383.757 32.7114C383.569 33.049 383.473 33.4374 383.473 33.8802C383.473 34.323 383.569 34.7114 383.757 35.049C383.945 35.3866 384.204 35.6443 384.529 35.8258C384.85 36.0073 385.216 36.098 385.622 36.098ZM397.898 33.9201C397.898 34.0363 397.89 34.1996 397.872 34.4102H392.212C392.312 34.9329 392.57 35.3466 392.987 35.6515C393.405 35.9564 393.925 36.1089 394.549 36.1089C395.343 36.1089 395.993 35.8512 396.51 35.3394L397.414 36.363C397.089 36.7441 396.679 37.0309 396.185 37.2269C395.69 37.4229 395.132 37.5172 394.508 37.5172C393.715 37.5172 393.017 37.3612 392.415 37.0526C391.813 36.7441 391.344 36.3122 391.016 35.7568C390.687 35.2051 390.521 34.5771 390.521 33.8766C390.521 33.1869 390.68 32.5626 391.001 32.0109C391.322 31.4592 391.765 31.0272 392.33 30.7151C392.899 30.4065 393.537 30.2505 394.25 30.2505C394.952 30.2505 395.579 30.4029 396.133 30.7078C396.687 31.0127 397.119 31.441 397.429 31.9964C397.743 32.5554 397.898 33.1942 397.898 33.9201ZM394.25 31.5826C393.711 31.5826 393.253 31.7387 392.88 32.0544C392.507 32.3702 392.278 32.7877 392.197 33.3103H396.292C396.218 32.7986 396 32.3811 395.631 32.0617C395.262 31.7423 394.8 31.5826 394.25 31.5826ZM410.381 30.3339V37.4265H399.751V30.3339H401.438V36.0181H404.233V30.3339H405.921V36.0181H408.69V30.3339H410.381ZM419.404 33.9201C419.404 34.0363 419.397 34.1996 419.378 34.4102H413.718C413.818 34.9329 414.076 35.3466 414.494 35.6515C414.911 35.9564 415.431 36.1089 416.055 36.1089C416.849 36.1089 417.499 35.8512 418.012 35.3394L418.917 36.363C418.592 36.7441 418.182 37.0309 417.687 37.2269C417.192 37.4229 416.635 37.5172 416.011 37.5172C415.217 37.5172 414.519 37.3612 413.918 37.0526C413.316 36.7441 412.847 36.3122 412.518 35.7568C412.19 35.2051 412.024 34.5771 412.024 33.8766C412.024 33.1869 412.182 32.5626 412.504 32.0109C412.825 31.4592 413.268 31.0272 413.833 30.7151C414.401 30.4065 415.04 30.2505 415.753 30.2505C416.454 30.2505 417.082 30.4029 417.635 30.7078C418.189 31.0127 418.621 31.441 418.931 31.9964C419.249 32.5554 419.404 33.1942 419.404 33.9201ZM415.756 31.5826C415.217 31.5826 414.759 31.7387 414.386 32.0544C414.014 32.3702 413.785 32.7877 413.703 33.3103H417.798C417.724 32.7986 417.506 32.3811 417.137 32.0617C416.764 31.7423 416.306 31.5826 415.756 31.5826ZM421.254 30.3339H422.941V33.216H426.574V30.3339H428.261V37.4265H426.574V34.6243H422.941V37.4265H421.254V30.3339ZM430.535 30.3339H432.223V35.0091L436.206 30.3339H437.746V37.4265H436.059V32.7514L432.086 37.4265H430.532V30.3339H430.535ZM446.109 30.3339V37.4265H444.595V35.2886H442.69L441.217 37.4265H439.408L441.109 35.0635C440.589 34.8857 440.19 34.6134 439.913 34.2468C439.64 33.8802 439.5 33.4265 439.5 32.8857C439.5 32.0726 439.791 31.441 440.378 30.9982C440.966 30.5554 441.77 30.3339 442.797 30.3339H446.109ZM442.856 31.7278C441.767 31.7278 441.22 32.1307 441.22 32.9365C441.22 33.735 441.748 34.1307 442.801 34.1307H444.599V31.7278H442.856ZM448.892 37.5209C448.586 37.5209 448.324 37.4156 448.11 37.2087C447.892 37.0018 447.785 36.7368 447.785 36.4174C447.785 36.0907 447.892 35.8258 448.102 35.6189C448.313 35.4156 448.579 35.314 448.892 35.314C449.206 35.314 449.472 35.4156 449.682 35.6189C449.893 35.8221 450 36.0871 450 36.4174C450 36.7368 449.893 36.9982 449.675 37.2087C449.461 37.4156 449.199 37.5209 448.892 37.5209Z" fill="#ED6C71"/>
</svg>
