<svg width="148" height="48" viewBox="0 0 148 48" fill="none" xmlns="http://www.w3.org/2000/svg">
<path d="M70.9045 24.9971L70.8905 19.1387L68.0109 23.9624H67.0044L64.1248 19.2505V24.9971H62V15.2097H63.8732L67.5356 21.2919L71.1422 15.2097H73.0153L73.0293 24.9971H70.9045Z" fill="#2B2A29"/>
<path d="M82.0861 22.8998H77.5429L76.6763 24.9971H74.3558L78.7172 15.2097H80.9538L85.3292 24.9971H82.9527L82.0861 22.8998ZM81.3731 21.18L79.8215 17.4329L78.2698 21.18H81.3731Z" fill="#2B2A29"/>
<path d="M93.5183 17.0553H88.8634L88.8774 24.9971H86.6268V15.2097H93.5323L93.5183 17.0553Z" fill="#2B2A29"/>
<path d="M99.6415 22.8998H95.0984L94.2317 24.9971H91.9112L96.2726 15.2097H98.5092L102.885 24.9971H100.508L99.6415 22.8998ZM98.9286 21.18L97.3769 17.4329L95.8253 21.18H98.9286Z" fill="#2B2A29"/>
<path d="M109.746 19.8937C110.314 20.0894 110.757 20.397 111.074 20.8165C111.4 21.2266 111.563 21.7067 111.563 22.2566C111.563 22.8532 111.367 23.3705 110.976 23.8086C110.585 24.2467 110.053 24.5823 109.382 24.8153C108.721 25.0484 107.994 25.1649 107.202 25.1649C106.531 25.1649 105.86 25.081 105.189 24.9132C104.527 24.7454 103.898 24.4891 103.302 24.1442L104.001 22.5223C104.429 22.7833 104.9 22.9837 105.412 23.1235C105.934 23.254 106.442 23.3193 106.936 23.3193C107.607 23.3193 108.162 23.1981 108.6 22.9557C109.047 22.7134 109.271 22.3732 109.271 21.9351C109.271 21.5715 109.117 21.2965 108.809 21.1101C108.511 20.9237 108.101 20.8305 107.579 20.8305H105.189V19.1247H107.411C107.868 19.1247 108.222 19.0315 108.474 18.845C108.735 18.6586 108.865 18.4023 108.865 18.076C108.865 17.6939 108.679 17.3956 108.306 17.1812C107.943 16.9668 107.472 16.8596 106.894 16.8596C106.465 16.8596 106.023 16.9202 105.566 17.0414C105.11 17.1532 104.676 17.3257 104.266 17.5587L103.581 15.797C104.616 15.2657 105.734 15 106.936 15C107.7 15 108.404 15.1119 109.047 15.3356C109.69 15.5593 110.202 15.8855 110.585 16.3143C110.967 16.7431 111.158 17.2418 111.158 17.8104C111.158 18.2764 111.032 18.6912 110.78 19.0548C110.529 19.4183 110.184 19.6979 109.746 19.8937Z" fill="#2B2A29"/>
<path d="M113.356 15.2097H115.606V21.5855L120.275 15.2097H122.4V24.9971H120.164V18.6353L115.495 24.9971H113.356V15.2097Z" fill="#2B2A29"/>
<path d="M133.811 15.2097V24.9971H131.546V20.9843H127.101V24.9971H124.837V15.2097H127.101V19.0687H131.546V15.2097H133.811Z" fill="#2B2A29"/>
<path d="M70.9185 34.1852V43.9726H68.6679V36.0309H64.2506V43.9726H62V34.1852H70.9185Z" fill="#2B2A29"/>
<path d="M78.0131 44.1404C76.9973 44.1404 76.0793 43.9213 75.2593 43.4832C74.4485 43.0451 73.8101 42.4439 73.3442 41.6796C72.8875 40.9059 72.6592 40.039 72.6592 39.0789C72.6592 38.1188 72.8875 37.2566 73.3442 36.4923C73.8101 35.7186 74.4485 35.1127 75.2593 34.6746C76.0793 34.2365 76.9973 34.0175 78.0131 34.0175C79.0289 34.0175 79.9422 34.2365 80.7529 34.6746C81.5637 35.1127 82.2021 35.7186 82.668 36.4923C83.134 37.2566 83.367 38.1188 83.367 39.0789C83.367 40.039 83.134 40.9059 82.668 41.6796C82.2021 42.4439 81.5637 43.0451 80.7529 43.4832C79.9422 43.9213 79.0289 44.1404 78.0131 44.1404ZM78.0131 42.2109C78.5909 42.2109 79.1128 42.0804 79.5787 41.8194C80.0447 41.5491 80.4081 41.1762 80.6691 40.7008C80.9393 40.2254 81.0745 39.6848 81.0745 39.0789C81.0745 38.473 80.9393 37.9324 80.6691 37.457C80.4081 36.9816 80.0447 36.6134 79.5787 36.3524C79.1128 36.0821 78.5909 35.947 78.0131 35.947C77.4353 35.947 76.9134 36.0821 76.4475 36.3524C75.9815 36.6134 75.6134 36.9816 75.3431 37.457C75.0822 37.9324 74.9517 38.473 74.9517 39.0789C74.9517 39.6848 75.0822 40.2254 75.3431 40.7008C75.6134 41.1762 75.9815 41.5491 76.4475 41.8194C76.9134 42.0804 77.4353 42.2109 78.0131 42.2109Z" fill="#2B2A29"/>
<path d="M94.9312 42.127V46H92.8344V43.9726H85.9288V46H83.832L83.846 42.127H84.2374C84.8245 42.1084 85.2392 41.6796 85.4815 40.8407C85.7238 40.0017 85.8729 38.804 85.9288 37.2473L86.0407 34.1852H93.5613V42.127H94.9312ZM87.9278 37.457C87.8812 38.6222 87.7833 39.6009 87.6342 40.3932C87.4851 41.1762 87.2568 41.7541 86.9493 42.127H91.3247V36.0309H87.9697L87.9278 37.457Z" fill="#2B2A29"/>
<path d="M103.164 41.8753H98.6204L97.7537 43.9726H95.4332L99.7946 34.1852H102.031L106.407 43.9726H104.03L103.164 41.8753ZM102.451 40.1555L100.899 36.4084L99.3473 40.1555H102.451Z" fill="#2B2A29"/>
<path d="M111.94 34.1852C112.807 34.1852 113.557 34.3297 114.19 34.6187C114.833 34.9076 115.327 35.3178 115.672 35.8491C116.017 36.3804 116.189 37.0096 116.189 37.7367C116.189 38.4544 116.017 39.0836 115.672 39.6242C115.327 40.1555 114.833 40.5657 114.19 40.8546C113.557 41.1343 112.807 41.2741 111.94 41.2741H109.969V43.9726H107.704V34.1852H111.94ZM111.814 39.4285C112.494 39.4285 113.012 39.284 113.366 38.995C113.72 38.6968 113.897 38.2773 113.897 37.7367C113.897 37.1867 113.72 36.7672 113.366 36.4783C113.012 36.18 112.494 36.0309 111.814 36.0309H109.969V39.4285H111.814Z" fill="#2B2A29"/>
<path d="M121.472 40.0297H119.906V43.9726H117.655V34.1852H119.906V38.1421H121.527L124.1 34.1852H126.49L123.289 38.9111L126.588 43.9726H124.016L121.472 40.0297Z" fill="#2B2A29"/>
<path d="M132.277 44.1404C131.261 44.1404 130.343 43.9213 129.523 43.4832C128.712 43.0451 128.074 42.4439 127.608 41.6796C127.151 40.9059 126.923 40.039 126.923 39.0789C126.923 38.1188 127.151 37.2566 127.608 36.4923C128.074 35.7186 128.712 35.1127 129.523 34.6746C130.343 34.2365 131.261 34.0175 132.277 34.0175C133.292 34.0175 134.206 34.2365 135.016 34.6746C135.827 35.1127 136.466 35.7186 136.932 36.4923C137.398 37.2566 137.631 38.1188 137.631 39.0789C137.631 40.039 137.398 40.9059 136.932 41.6796C136.466 42.4439 135.827 43.0451 135.016 43.4832C134.206 43.9213 133.292 44.1404 132.277 44.1404ZM132.277 42.2109C132.854 42.2109 133.376 42.0804 133.842 41.8194C134.308 41.5491 134.672 41.1762 134.933 40.7008C135.203 40.2254 135.338 39.6848 135.338 39.0789C135.338 38.473 135.203 37.9324 134.933 37.457C134.672 36.9816 134.308 36.6134 133.842 36.3524C133.376 36.0821 132.854 35.947 132.277 35.947C131.699 35.947 131.177 36.0821 130.711 36.3524C130.245 36.6134 129.877 36.9816 129.607 37.457C129.346 37.9324 129.215 38.473 129.215 39.0789C129.215 39.6848 129.346 40.2254 129.607 40.7008C129.877 41.1762 130.245 41.5491 130.711 41.8194C131.177 42.0804 131.699 42.2109 132.277 42.2109Z" fill="#2B2A29"/>
<path d="M146.155 38.8692C146.751 39.0463 147.208 39.3353 147.525 39.7361C147.842 40.1369 148 40.6309 148 41.2182C148 42.0851 147.669 42.7608 147.007 43.2456C146.355 43.7303 145.419 43.9726 144.198 43.9726H139.375V34.1852H143.932C145.069 34.1852 145.954 34.4043 146.588 34.8424C147.222 35.2805 147.539 35.905 147.539 36.716C147.539 37.2007 147.418 37.6295 147.175 38.0023C146.933 38.3659 146.593 38.6548 146.155 38.8692ZM141.626 38.24H143.736C144.23 38.24 144.603 38.1421 144.855 37.9464C145.106 37.7413 145.232 37.443 145.232 37.0515C145.232 36.6694 145.102 36.3758 144.841 36.1707C144.589 35.9656 144.221 35.8631 143.736 35.8631H141.626V38.24ZM144.114 42.2948C145.176 42.2948 145.707 41.8753 145.707 41.0364C145.707 40.2254 145.176 39.82 144.114 39.82H141.626V42.2948H144.114Z" fill="#2B2A29"/>
<path d="M42.9983 23.4561H3.87676C3.65796 23.4561 3.48059 23.6372 3.48059 23.8606V36.6054C3.48059 40.851 6.85063 44.2925 11.0078 44.2925H36.2974C36.4024 44.2925 36.5032 44.2503 36.5775 44.1741L43.2784 37.3308C43.3527 37.2549 43.3944 37.152 43.3944 37.0447V23.8606C43.3944 23.6372 43.2169 23.4561 42.9983 23.4561Z" fill="#27348B"/>
<path d="M42.9487 14.9595H3.82726C3.60846 14.9595 3.43109 15.1406 3.43109 15.3641V22.0399C3.43109 22.2634 3.60846 22.4445 3.82726 22.4445H42.9487C43.1675 22.4445 43.3449 22.2634 43.3449 22.0399V15.3641C43.3449 15.1406 43.1675 14.9595 42.9487 14.9595Z" fill="#27348B"/>
<path d="M28.7858 14.9595H18.0893V22.4445H28.7858V14.9595Z" fill="#ED6C71"/>
<path d="M27.3002 23.4561H19.3768V44.2927H27.3002V23.4561Z" fill="#ED6C71"/>
<path d="M26.4841 13.3336L38.7937 3.04785V13.3336H26.4841Z" fill="#ED6C71"/>
<path d="M20.5159 13.3336L8.20636 3.04785V13.3336H20.5159Z" fill="#ED6C71"/>
</svg>
