<svg width="1890" height="697" viewBox="0 0 1890 697" fill="none" xmlns="http://www.w3.org/2000/svg">
<mask id="mask0" mask-type="alpha" maskUnits="userSpaceOnUse" x="0" y="0" width="1890" height="697">
<rect width="1890" height="697" fill="#F4F5FB"/>
</mask>
<g mask="url(#mask0)">
<path d="M1457.44 373H1287.56C1285.27 373 1282.99 373.169 1280.71 373.338L1215.35 436.257C1215.18 438.456 1215 440.655 1215 442.854V606.409V751.19C1215 757.11 1220.09 761 1225.19 761C1227.65 761 1230.28 760.154 1232.22 758.125L1317.25 676.262H1457.27C1459.55 676.262 1461.83 676.093 1464.29 675.924L1529.65 613.005C1529.82 610.806 1530 608.608 1530 606.24V442.854C1530 404.29 1497.5 373 1457.44 373Z" fill="white"/>
<path d="M286.443 234H116.557C114.273 234 111.989 234.169 109.706 234.338L44.3514 297.257C44.1757 299.456 44 301.655 44 303.854V467.409V612.19C44 618.11 49.0948 622 54.1896 622C56.6492 622 59.2844 621.154 61.217 619.125L146.248 537.262H286.267C288.551 537.262 290.835 537.093 293.294 536.924L358.649 474.005C358.824 471.806 359 469.608 359 467.24V303.854C359 265.29 326.499 234 286.443 234Z" fill="white"/>
<path d="M654.443 622H484.557C482.273 622 479.989 622.169 477.706 622.338L412.351 685.257C412.176 687.456 412 689.655 412 691.854V855.409V1000.19C412 1006.11 417.095 1010 422.19 1010C424.649 1010 427.284 1009.15 429.217 1007.12L514.248 925.262H654.267C656.551 925.262 658.835 925.093 661.294 924.924L726.649 862.005C726.824 859.806 727 857.608 727 855.24V691.854C727 653.29 694.499 622 654.443 622Z" fill="#F4F5FB"/>
<path d="M1891.76 435H1770.5C1768.87 435 1767.24 435.126 1765.61 435.251L1718.96 481.939C1718.84 483.571 1718.71 485.202 1718.71 486.834V608.199V715.632C1718.71 720.025 1722.35 722.911 1725.99 722.911C1727.74 722.911 1729.62 722.284 1731 720.778L1791.69 660.033H1891.63C1893.26 660.033 1894.89 659.907 1896.65 659.782L1943.29 613.093C1943.42 611.462 1943.54 609.83 1943.54 608.073V486.834C1943.54 458.219 1920.34 435 1891.76 435Z" fill="white"/>
<path d="M1901.35 435L1762.9 435C1761.29 435 1759.69 435.085 1758.11 435.238L1710.32 480.367C1710.19 481.93 1710.08 483.544 1710.08 485.141L1710.08 602.518L1710.08 602.535L1710 749.085C1710 749.085 1736.3 719.044 1744.91 708.969C1750.64 702.274 1760.35 691.943 1770.1 684.501C1781.38 675.886 1802.99 677.025 1802.99 677.025L1902.31 677.229C1903.92 677.229 1905.52 677.144 1907.1 677.008L1953.76 631.029C1953.92 629.449 1954 627.835 1954 626.221L1954 482.168C1954.02 454.472 1929.06 435 1901.35 435ZM1933.55 619.084C1933.55 620.512 1933.48 621.905 1933.34 623.298L1899.37 656.431C1897.97 656.55 1896.56 656.635 1895.15 656.635C1895.15 656.635 1808.82 655.684 1780.06 656.465C1774.21 656.618 1767.73 657.655 1757.87 663.89C1748.78 669.634 1740.7 679.268 1740.7 679.268L1729.64 692.98L1730.28 603.979L1730.28 603.962L1730.28 491.36C1730.28 489.95 1730.35 490.307 1730.49 488.931L1764.41 455.424C1765.81 455.305 1769.61 455.22 1771.04 455.22L1895.02 455.22C1919.31 455.22 1933.56 473.468 1933.56 497.766L1933.56 619.084L1933.55 619.084Z" fill="#F4F5FB"/>
<path d="M1882.12 473.389L1779.75 473.389C1778.65 473.389 1773.71 473.44 1772.63 473.543L1750.63 496.651C1750.53 497.731 1750.48 507.073 1750.48 508.17L1750.48 596.848L1750.48 596.865L1750.09 647.88C1750.09 647.88 1761.72 640.046 1772.34 637.766C1775.56 637.081 1788.89 636.498 1788.89 636.498L1882.24 636.635C1883.34 636.635 1890.65 636.584 1891.72 636.481L1912 615.841C1912.1 614.744 1912.17 609.893 1912.17 608.779L1912.17 509.816C1912.15 490.685 1901.05 473.389 1882.12 473.389ZM1888.75 595.802C1888.75 596.608 1888.72 602.59 1888.63 603.362L1874.79 617.007C1874.01 617.076 1868.19 617.127 1867.4 617.127L1796.32 617.024C1796.32 617.024 1792.67 617.041 1791.45 617.024C1781.53 616.887 1779.07 617.093 1775.27 618.533C1774.03 618.996 1770.54 620.933 1770.54 620.933L1770.59 587.317L1770.59 524.061C1770.59 523.273 1770.62 512.182 1770.71 511.41L1786.09 494.285C1786.85 494.217 1793.54 494.165 1794.32 494.165L1867.33 494.165C1880.83 494.165 1888.75 503.936 1888.75 525.227L1888.75 595.802Z" fill="#F4F5FB"/>
<path d="M1791.91 597.278L1868.6 597.278L1868.6 515.267L1791.91 515.267L1791.91 597.278ZM1848.46 575.146L1812.07 575.146L1812.07 537.399L1848.46 537.399L1848.46 575.146Z" fill="#F4F5FB"/>
<path d="M1524.76 487H1403.5C1401.87 487 1400.24 487.126 1398.61 487.251L1351.96 533.939C1351.84 535.571 1351.71 537.202 1351.71 538.834V660.199V767.632C1351.71 772.025 1355.35 774.911 1358.99 774.911C1360.74 774.911 1362.62 774.284 1364 772.778L1424.69 712.033H1524.63C1526.26 712.033 1527.89 711.907 1529.65 711.782L1576.29 665.093C1576.42 663.462 1576.54 661.83 1576.54 660.073V538.834C1576.54 510.219 1553.34 487 1524.76 487Z" fill="white"/>
<path d="M1534.35 487L1395.9 487C1394.29 487 1392.69 487.085 1391.11 487.238L1343.32 532.367C1343.19 533.93 1343.08 535.544 1343.08 537.141L1343.08 654.518L1343.08 654.535L1343 801.085C1343 801.085 1369.3 771.044 1377.91 760.969C1383.64 754.274 1393.35 743.943 1403.1 736.501C1414.38 727.886 1435.99 729.025 1435.99 729.025L1535.31 729.229C1536.92 729.229 1538.52 729.144 1540.1 729.008L1586.76 683.029C1586.92 681.449 1587 679.835 1587 678.221L1587 534.168C1587.02 506.472 1562.06 487 1534.35 487ZM1566.55 671.084C1566.55 672.512 1566.48 673.905 1566.34 675.298L1532.37 708.431C1530.97 708.55 1529.56 708.635 1528.15 708.635C1528.15 708.635 1441.82 707.684 1413.06 708.465C1407.21 708.618 1400.73 709.655 1390.87 715.89C1381.78 721.634 1373.7 731.268 1373.7 731.268L1362.64 744.98L1363.28 655.979L1363.28 655.962L1363.28 543.36C1363.28 541.95 1363.35 542.307 1363.49 540.931L1397.41 507.424C1398.81 507.305 1402.61 507.22 1404.04 507.22L1528.02 507.22C1552.31 507.22 1566.56 525.468 1566.56 549.766L1566.56 671.084L1566.55 671.084Z" fill="#F4F5FB"/>
<path d="M1515.12 525.389L1412.75 525.389C1411.65 525.389 1406.71 525.44 1405.63 525.543L1383.63 548.651C1383.53 549.731 1383.48 559.073 1383.48 560.17L1383.48 648.848L1383.48 648.865L1383.09 699.88C1383.09 699.88 1394.72 692.046 1405.34 689.766C1408.56 689.081 1421.89 688.498 1421.89 688.498L1515.24 688.635C1516.34 688.635 1523.65 688.584 1524.72 688.481L1545 667.841C1545.1 666.744 1545.17 661.893 1545.17 660.779L1545.17 561.816C1545.15 542.685 1534.05 525.389 1515.12 525.389ZM1521.75 647.802C1521.75 648.608 1521.72 654.59 1521.63 655.362L1507.79 669.007C1507.01 669.076 1501.19 669.127 1500.4 669.127L1429.32 669.024C1429.32 669.024 1425.67 669.041 1424.45 669.024C1414.53 668.887 1412.07 669.093 1408.27 670.533C1407.03 670.996 1403.54 672.933 1403.54 672.933L1403.59 639.317L1403.59 576.061C1403.59 575.273 1403.62 564.182 1403.71 563.41L1419.09 546.285C1419.85 546.217 1426.54 546.165 1427.32 546.165L1500.33 546.165C1513.83 546.165 1521.75 555.936 1521.75 577.227L1521.75 647.802Z" fill="#F4F5FB"/>
<path d="M1424.91 649.278L1501.6 649.278L1501.6 567.267L1424.91 567.267L1424.91 649.278ZM1481.46 627.146L1445.07 627.146L1445.07 589.399L1481.46 589.399L1481.46 627.146Z" fill="#F4F5FB"/>
<path d="M1925.25 200H1851.7C1850.71 200 1849.72 200.076 1848.73 200.152L1820.44 228.395C1820.36 229.382 1820.29 230.369 1820.29 231.356V304.773V369.763C1820.29 372.42 1822.49 374.167 1824.7 374.167C1825.76 374.167 1826.9 373.787 1827.74 372.876L1864.55 336.129H1925.17C1926.16 336.129 1927.15 336.053 1928.21 335.978L1956.5 307.734C1956.58 306.747 1956.66 305.76 1956.66 304.697V231.356C1956.66 214.046 1942.59 200 1925.25 200Z" fill="white"/>
<path d="M1931.07 200L1847.09 200C1846.11 200 1845.14 200.051 1844.18 200.144L1815.2 227.444C1815.11 228.39 1815.05 229.366 1815.05 230.332L1815.05 301.337L1815.05 301.347L1815 390C1815 390 1830.95 371.827 1836.18 365.732C1839.65 361.682 1845.54 355.433 1851.46 350.931C1858.3 345.72 1871.41 346.408 1871.41 346.408L1931.64 346.532C1932.62 346.532 1933.59 346.48 1934.55 346.398L1962.86 318.584C1962.95 317.628 1963 316.652 1963 315.675L1963 228.533C1963.01 211.779 1947.87 200 1931.07 200ZM1950.59 311.358C1950.59 312.222 1950.55 313.065 1950.47 313.907L1929.86 333.951C1929.02 334.023 1928.16 334.074 1927.31 334.074C1927.31 334.074 1874.94 333.499 1857.49 333.971C1853.95 334.064 1850.01 334.691 1844.04 338.463C1838.52 341.937 1833.62 347.765 1833.62 347.765L1826.91 356.06L1827.3 302.221L1827.3 302.21L1827.3 234.094C1827.3 233.241 1827.34 233.457 1827.43 232.624L1848 212.355C1848.85 212.283 1851.16 212.232 1852.02 212.232L1927.22 212.232C1941.96 212.232 1950.6 223.271 1950.6 237.969L1950.6 311.358L1950.59 311.358Z" fill="#F4F5FB"/>
<path d="M1919.4 223.222L1857.31 223.222C1856.64 223.222 1853.64 223.253 1852.99 223.315L1839.64 237.294C1839.58 237.947 1839.55 243.599 1839.55 244.263L1839.55 297.906L1839.55 297.917L1839.31 328.778C1839.31 328.778 1846.37 324.039 1852.81 322.659C1854.77 322.245 1862.85 321.892 1862.85 321.892L1919.47 321.975C1920.14 321.975 1924.57 321.944 1925.22 321.882L1937.53 309.396C1937.59 308.733 1937.63 305.798 1937.63 305.124L1937.63 245.258C1937.62 233.685 1930.88 223.222 1919.4 223.222ZM1923.42 297.274C1923.42 297.761 1923.4 301.38 1923.35 301.847L1914.96 310.101C1914.48 310.143 1910.95 310.174 1910.47 310.174L1867.36 310.112C1867.36 310.112 1865.15 310.122 1864.41 310.112C1858.39 310.029 1856.9 310.153 1854.59 311.024C1853.84 311.304 1851.72 312.476 1851.72 312.476L1851.75 292.141L1851.75 253.876C1851.75 253.399 1851.77 246.689 1851.82 246.223L1861.15 235.863C1861.62 235.822 1865.67 235.791 1866.14 235.791L1910.43 235.791C1918.62 235.791 1923.42 241.701 1923.42 254.581L1923.42 297.274Z" fill="#F4F5FB"/>
<path d="M1864.69 298.167L1911.2 298.167L1911.2 248.556L1864.69 248.556L1864.69 298.167ZM1898.98 284.778L1876.91 284.778L1876.91 261.944L1898.98 261.944L1898.98 284.778Z" fill="#F4F5FB"/>
<path d="M1686.25 550H1612.7C1611.71 550 1610.72 550.076 1609.73 550.152L1581.44 578.395C1581.36 579.382 1581.29 580.369 1581.29 581.356V654.773V719.763C1581.29 722.42 1583.49 724.167 1585.7 724.167C1586.76 724.167 1587.9 723.787 1588.74 722.876L1625.55 686.129H1686.17C1687.16 686.129 1688.15 686.053 1689.21 685.978L1717.5 657.734C1717.58 656.747 1717.66 655.76 1717.66 654.697V581.356C1717.66 564.046 1703.59 550 1686.25 550Z" fill="white"/>
<path d="M1692.07 550L1608.09 550C1607.11 550 1606.14 550.051 1605.18 550.144L1576.2 577.444C1576.11 578.39 1576.05 579.366 1576.05 580.332L1576.05 651.337L1576.05 651.347L1576 740C1576 740 1591.95 721.827 1597.18 715.732C1600.65 711.682 1606.54 705.433 1612.46 700.931C1619.3 695.72 1632.41 696.408 1632.41 696.408L1692.64 696.532C1693.62 696.532 1694.59 696.48 1695.55 696.398L1723.86 668.584C1723.95 667.628 1724 666.652 1724 665.675L1724 578.533C1724.01 561.779 1708.87 550 1692.07 550ZM1711.59 661.358C1711.59 662.222 1711.55 663.065 1711.47 663.907L1690.86 683.951C1690.02 684.023 1689.16 684.074 1688.31 684.074C1688.31 684.074 1635.94 683.499 1618.49 683.971C1614.95 684.064 1611.01 684.691 1605.04 688.463C1599.52 691.937 1594.62 697.765 1594.62 697.765L1587.91 706.06L1588.3 652.221L1588.3 652.21L1588.3 584.094C1588.3 583.241 1588.34 583.457 1588.43 582.624L1609 562.355C1609.85 562.283 1612.16 562.232 1613.02 562.232L1688.22 562.232C1702.96 562.232 1711.6 573.271 1711.6 587.969L1711.6 661.358L1711.59 661.358Z" fill="#F4F5FB"/>
<path d="M1680.4 573.222L1618.31 573.222C1617.64 573.222 1614.64 573.253 1613.99 573.315L1600.64 587.294C1600.58 587.947 1600.55 593.599 1600.55 594.263L1600.55 647.906L1600.55 647.917L1600.31 678.778C1600.31 678.778 1607.37 674.039 1613.81 672.659C1615.77 672.245 1623.85 671.892 1623.85 671.892L1680.47 671.975C1681.14 671.975 1685.57 671.944 1686.22 671.882L1698.53 659.396C1698.59 658.733 1698.63 655.798 1698.63 655.124L1698.63 595.258C1698.62 583.685 1691.88 573.222 1680.4 573.222ZM1684.42 647.274C1684.42 647.761 1684.4 651.38 1684.35 651.847L1675.96 660.101C1675.48 660.143 1671.95 660.174 1671.47 660.174L1628.36 660.112C1628.36 660.112 1626.15 660.122 1625.41 660.112C1619.39 660.029 1617.9 660.153 1615.59 661.024C1614.84 661.304 1612.72 662.476 1612.72 662.476L1612.75 642.141L1612.75 603.876C1612.75 603.399 1612.77 596.689 1612.82 596.223L1622.15 585.863C1622.62 585.822 1626.67 585.791 1627.14 585.791L1671.43 585.791C1679.62 585.791 1684.42 591.701 1684.42 604.581L1684.42 647.274Z" fill="#F4F5FB"/>
<path d="M1625.69 648.167L1672.2 648.167L1672.2 598.556L1625.69 598.556L1625.69 648.167ZM1659.98 634.778L1637.91 634.778L1637.91 611.944L1659.98 611.944L1659.98 634.778Z" fill="#F4F5FB"/>
<path d="M1804.25 662H1730.7C1729.71 662 1728.72 662.076 1727.73 662.152L1699.44 690.395C1699.36 691.382 1699.29 692.369 1699.29 693.356V766.773V831.763C1699.29 834.42 1701.49 836.167 1703.7 836.167C1704.76 836.167 1705.9 835.787 1706.74 834.876L1743.55 798.129H1804.17C1805.16 798.129 1806.15 798.053 1807.21 797.978L1835.5 769.734C1835.58 768.747 1835.66 767.76 1835.66 766.697V693.356C1835.66 676.046 1821.59 662 1804.25 662Z" fill="white"/>
<path d="M1810.07 662L1726.09 662C1725.11 662 1724.14 662.051 1723.18 662.144L1694.2 689.444C1694.11 690.39 1694.05 691.366 1694.05 692.332L1694.05 763.337L1694.05 763.347L1694 852C1694 852 1709.95 833.827 1715.18 827.732C1718.65 823.682 1724.54 817.433 1730.46 812.931C1737.3 807.72 1750.41 808.408 1750.41 808.408L1810.64 808.532C1811.62 808.532 1812.59 808.48 1813.55 808.398L1841.86 780.584C1841.95 779.628 1842 778.652 1842 777.675L1842 690.533C1842.01 673.779 1826.87 662 1810.07 662ZM1829.59 773.358C1829.59 774.222 1829.55 775.065 1829.47 775.907L1808.86 795.951C1808.02 796.023 1807.16 796.074 1806.31 796.074C1806.31 796.074 1753.94 795.499 1736.49 795.971C1732.95 796.064 1729.01 796.691 1723.04 800.463C1717.52 803.937 1712.62 809.765 1712.62 809.765L1705.91 818.06L1706.3 764.221L1706.3 764.21L1706.3 696.094C1706.3 695.241 1706.34 695.457 1706.43 694.624L1727 674.355C1727.85 674.283 1730.16 674.232 1731.02 674.232L1806.22 674.232C1820.96 674.232 1829.6 685.271 1829.6 699.969L1829.6 773.358L1829.59 773.358Z" fill="#F4F5FB"/>
<path d="M1798.4 685.222L1736.31 685.222C1735.64 685.222 1732.64 685.253 1731.99 685.315L1718.64 699.294C1718.58 699.947 1718.55 705.599 1718.55 706.263L1718.55 759.906L1718.55 759.917L1718.31 790.778C1718.31 790.778 1725.37 786.039 1731.81 784.659C1733.77 784.245 1741.85 783.892 1741.85 783.892L1798.47 783.975C1799.14 783.975 1803.57 783.944 1804.22 783.882L1816.53 771.396C1816.59 770.733 1816.63 767.798 1816.63 767.124L1816.63 707.258C1816.62 695.685 1809.88 685.222 1798.4 685.222ZM1802.42 759.274C1802.42 759.761 1802.4 763.38 1802.35 763.847L1793.96 772.101C1793.48 772.143 1789.95 772.174 1789.47 772.174L1746.36 772.112C1746.36 772.112 1744.15 772.122 1743.41 772.112C1737.39 772.029 1735.9 772.153 1733.59 773.024C1732.84 773.304 1730.72 774.476 1730.72 774.476L1730.75 754.141L1730.75 715.876C1730.75 715.399 1730.77 708.689 1730.82 708.223L1740.15 697.863C1740.62 697.822 1744.67 697.791 1745.14 697.791L1789.43 697.791C1797.62 697.791 1802.42 703.701 1802.42 716.581L1802.42 759.274Z" fill="#F4F5FB"/>
<path d="M1597.86 437H1581.14C1580.92 437 1580.69 437.017 1580.47 437.035L1574.03 443.521C1574.02 443.748 1574 443.975 1574 444.201V461.063V475.989C1574 476.599 1574.5 477 1575 477C1575.24 477 1575.5 476.913 1575.69 476.704L1584.06 468.264H1597.84C1598.07 468.264 1598.29 468.247 1598.53 468.229L1604.97 461.743C1604.98 461.516 1605 461.289 1605 461.045V444.201C1605 440.226 1601.8 437 1597.86 437Z" fill="white"/>
<path d="M1845.86 123H1829.14C1828.92 123 1828.69 123.017 1828.47 123.035L1822.03 129.521C1822.02 129.748 1822 129.975 1822 130.201V147.063V161.989C1822 162.599 1822.5 163 1823 163C1823.24 163 1823.5 162.913 1823.69 162.704L1832.06 154.264H1845.84C1846.07 154.264 1846.29 154.247 1846.53 154.229L1852.97 147.743C1852.98 147.516 1853 147.289 1853 147.045V130.201C1853 126.226 1849.8 123 1845.86 123Z" fill="white"/>
<path d="M1042.86 613H1026.14C1025.92 613 1025.69 613.017 1025.47 613.035L1019.03 619.521C1019.02 619.748 1019 619.975 1019 620.201V637.063V651.989C1019 652.599 1019.5 653 1020 653C1020.24 653 1020.5 652.913 1020.69 652.704L1029.06 644.264H1042.84C1043.07 644.264 1043.29 644.247 1043.53 644.229L1049.97 637.743C1049.98 637.516 1050 637.289 1050 637.045V620.201C1050 616.226 1046.8 613 1042.86 613Z" fill="white"/>
<path d="M1201.86 353H1185.14C1184.92 353 1184.69 353.017 1184.47 353.035L1178.03 359.521C1178.02 359.748 1178 359.975 1178 360.201V377.063V391.989C1178 392.599 1178.5 393 1179 393C1179.24 393 1179.5 392.913 1179.69 392.704L1188.06 384.264H1201.84C1202.07 384.264 1202.29 384.247 1202.53 384.229L1208.97 377.743C1208.98 377.516 1209 377.289 1209 377.045V360.201C1209 356.226 1205.8 353 1201.86 353Z" fill="#F4F5FB"/>
<path d="M1722.86 269H1706.14C1705.92 269 1705.69 269.017 1705.47 269.035L1699.03 275.521C1699.02 275.748 1699 275.975 1699 276.201V293.063V307.989C1699 308.599 1699.5 309 1700 309C1700.24 309 1700.5 308.913 1700.69 308.704L1709.06 300.264H1722.84C1723.07 300.264 1723.29 300.247 1723.53 300.229L1729.97 293.743C1729.98 293.516 1730 293.289 1730 293.045V276.201C1730 272.226 1726.8 269 1722.86 269Z" fill="#F4F5FB"/>
<path d="M341.859 237H325.141C324.916 237 324.691 237.017 324.466 237.035L318.035 243.521C318.017 243.748 318 243.975 318 244.201V261.063V275.989C318 276.599 318.501 277 319.003 277C319.245 277 319.504 276.913 319.694 276.704L328.062 268.264H341.842C342.067 268.264 342.292 268.247 342.534 268.229L348.965 261.743C348.983 261.516 349 261.289 349 261.045V244.201C349 240.226 345.801 237 341.859 237Z" fill="#F4F5FB"/>
<path d="M406.755 383H285.501C283.871 383 282.241 383.126 280.611 383.251L233.965 429.939C233.839 431.571 233.714 433.202 233.714 434.834V556.199V663.632C233.714 668.025 237.35 670.911 240.987 670.911C242.742 670.911 244.623 670.284 246.002 668.778L306.692 608.033H406.63C408.26 608.033 409.89 607.907 411.646 607.782L458.292 561.093C458.417 559.462 458.542 557.83 458.542 556.073V434.834C458.542 406.219 435.345 383 406.755 383Z" fill="white"/>
<path d="M416.354 383L277.901 383C276.287 383 274.69 383.085 273.11 383.238L225.323 428.367C225.187 429.93 225.085 431.544 225.085 433.141L225.085 550.518L225.085 550.535L225 697.085C225 697.085 251.298 667.044 259.911 656.969C265.636 650.274 275.353 639.943 285.104 632.501C296.384 623.886 317.993 625.025 317.993 625.025L417.305 625.229C418.919 625.229 420.516 625.144 422.096 625.008L468.762 579.029C468.915 577.449 469 575.835 469 574.221L469 430.168C469.017 402.472 444.061 383 416.354 383ZM448.546 567.084C448.546 568.512 448.478 569.905 448.342 571.298L414.366 604.431C412.973 604.55 411.563 604.635 410.153 604.635C410.153 604.635 323.82 603.684 295.059 604.465C289.215 604.618 282.726 605.655 272.872 611.89C263.784 617.634 255.697 627.268 255.697 627.268L244.638 640.98L245.284 551.979L245.284 551.962L245.284 439.36C245.284 437.95 245.352 438.307 245.488 436.931L279.413 403.424C280.806 403.305 284.611 403.22 286.038 403.22L410.017 403.22C434.31 403.22 448.563 421.468 448.563 445.766L448.563 567.084L448.546 567.084Z" fill="#F4F5FB"/>
<path d="M397.118 421.389L294.749 421.389C293.646 421.389 288.711 421.44 287.625 421.543L265.628 444.651C265.527 445.731 265.476 455.073 265.476 456.17L265.476 544.848L265.476 544.865L265.086 595.88C265.086 595.88 276.72 588.046 287.337 585.766C290.559 585.081 303.89 584.498 303.89 584.498L397.237 584.635C398.34 584.635 405.649 584.584 406.718 584.481L427.002 563.841C427.104 562.744 427.171 557.893 427.171 556.779L427.171 457.816C427.154 438.685 416.046 421.389 397.118 421.389ZM403.75 543.802C403.75 544.608 403.716 550.59 403.631 551.362L389.792 565.007C389.012 565.076 383.194 565.127 382.397 565.127L311.318 565.024C311.318 565.024 307.672 565.041 306.451 565.024C296.529 564.887 294.07 565.093 290.271 566.533C289.033 566.996 285.539 568.933 285.539 568.933L285.59 535.317L285.59 472.061C285.59 471.273 285.624 460.182 285.709 459.41L301.092 442.285C301.855 442.217 308.537 442.165 309.317 442.165L382.329 442.165C395.83 442.165 403.75 451.936 403.75 473.227L403.75 543.802Z" fill="#F4F5FB"/>
<path d="M306.914 545.278L383.6 545.278L383.6 463.267L306.914 463.267L306.914 545.278ZM363.459 523.146L327.072 523.146L327.072 485.399L363.459 485.399L363.459 523.146Z" fill="#F4F5FB"/>
<path d="M181.755 506H60.5008C58.8707 506 57.2406 506.126 55.6105 506.251L8.96453 552.939C8.83914 554.571 8.71375 556.202 8.71375 557.834V679.199V786.632C8.71375 791.025 12.3501 793.911 15.9865 793.911C17.742 793.911 19.6229 793.284 21.0022 791.778L81.6921 731.033H181.63C183.26 731.033 184.89 730.907 186.646 730.782L233.292 684.093C233.417 682.462 233.542 680.83 233.542 679.073V557.834C233.542 529.219 210.345 506 181.755 506Z" fill="white"/>
<path d="M191.354 506L52.9009 506C51.287 506 49.6902 506.085 48.1103 506.238L0.322778 551.367C0.186873 552.93 0.0849328 554.544 0.0849328 556.141L0.084933 673.518L0.084933 673.535L6.32057e-07 820.085C6.32057e-07 820.085 26.2976 790.044 34.9105 779.969C40.6355 773.274 50.3527 762.943 60.1039 755.501C71.384 746.886 92.9928 748.025 92.9928 748.025L192.305 748.229C193.919 748.229 195.516 748.144 197.096 748.008L243.762 702.029C243.915 700.449 244 698.835 244 697.221L244 553.168C244.017 525.472 219.061 506 191.354 506ZM223.546 690.084C223.546 691.512 223.478 692.905 223.342 694.298L189.366 727.431C187.973 727.55 186.563 727.635 185.153 727.635C185.153 727.635 98.8197 726.684 70.0589 727.465C64.215 727.618 57.7255 728.655 47.8724 734.89C38.7838 740.634 30.6975 750.268 30.6975 750.268L19.6382 763.98L20.2838 674.979L20.2838 674.962L20.2838 562.36C20.2838 560.95 20.3517 561.307 20.4876 559.931L54.4129 526.424C55.8059 526.305 59.6112 526.22 61.0382 526.22L185.017 526.22C209.31 526.22 223.563 544.468 223.563 568.766L223.563 690.084L223.546 690.084Z" fill="#F4F5FB"/>
<path d="M172.118 544.389L69.7486 544.389C68.6462 544.389 63.7108 544.44 62.6254 544.543L40.6284 567.651C40.5267 568.731 40.4758 578.073 40.4758 579.17L40.4758 667.848L40.4758 667.865L40.0857 718.88C40.0857 718.88 51.7202 711.046 62.3371 708.766C65.5594 708.081 78.8899 707.498 78.8899 707.498L172.237 707.635C173.34 707.635 180.649 707.584 181.718 707.481L202.002 686.841C202.104 685.744 202.171 680.893 202.171 679.779L202.171 580.816C202.154 561.685 191.046 544.389 172.118 544.389ZM178.75 666.802C178.75 667.608 178.716 673.59 178.631 674.362L164.792 688.007C164.012 688.076 158.194 688.127 157.397 688.127L86.3184 688.024C86.3184 688.024 82.672 688.041 81.4509 688.024C71.5293 687.887 69.0702 688.093 65.2711 689.533C64.0331 689.996 60.5393 691.933 60.5393 691.933L60.5902 658.317L60.5902 595.061C60.5902 594.273 60.6241 583.182 60.7089 582.41L76.0915 565.285C76.8547 565.217 83.5369 565.165 84.3171 565.165L157.329 565.165C170.83 565.165 178.75 574.936 178.75 596.227L178.75 666.802Z" fill="#F4F5FB"/>
<path d="M81.9143 668.278L158.6 668.278L158.6 586.267L81.9143 586.267L81.9143 668.278ZM138.459 646.146L102.072 646.146L102.072 608.399L138.459 608.399L138.459 646.146Z" fill="#F4F5FB"/>
<path d="M375.245 606H301.697C300.708 606 299.72 606.076 298.731 606.152L270.437 634.395C270.361 635.382 270.285 636.369 270.285 637.356V710.773V775.763C270.285 778.42 272.491 780.167 274.697 780.167C275.761 780.167 276.902 779.787 277.739 778.876L314.551 742.129H375.169C376.158 742.129 377.146 742.053 378.211 741.978L406.505 713.734C406.581 712.747 406.657 711.76 406.657 710.697V637.356C406.657 620.046 392.586 606 375.245 606Z" fill="white"/>
<path d="M381.067 606L297.087 606C296.109 606 295.14 606.051 294.182 606.144L265.196 633.444C265.113 634.39 265.052 635.366 265.052 636.332L265.052 707.337L265.052 707.347L265 796C265 796 280.951 777.827 286.175 771.732C289.648 767.682 295.542 761.433 301.456 756.931C308.298 751.72 321.405 752.408 321.405 752.408L381.644 752.532C382.623 752.532 383.592 752.48 384.55 752.398L412.856 724.584C412.948 723.628 413 722.652 413 721.675L413 634.533C413.01 617.779 397.873 606 381.067 606ZM400.594 717.358C400.594 718.222 400.552 719.065 400.47 719.907L379.862 739.951C379.017 740.023 378.161 740.074 377.306 740.074C377.306 740.074 324.94 739.499 307.495 739.971C303.95 740.064 300.014 740.691 294.037 744.463C288.525 747.937 283.62 753.765 283.62 753.765L276.912 762.06L277.303 708.221L277.303 708.21L277.303 640.094C277.303 639.241 277.344 639.457 277.427 638.624L298.005 618.355C298.849 618.283 301.158 618.232 302.023 618.232L377.224 618.232C391.959 618.232 400.604 629.271 400.604 643.969L400.604 717.358L400.594 717.358Z" fill="#F4F5FB"/>
<path d="M369.4 629.222L307.307 629.222C306.638 629.222 303.645 629.253 302.986 629.315L289.644 643.294C289.582 643.947 289.551 649.599 289.551 650.263L289.551 703.906L289.551 703.917L289.315 734.778C289.315 734.778 296.372 730.039 302.812 728.659C304.766 728.245 312.852 727.892 312.852 727.892L369.472 727.975C370.141 727.975 374.575 727.944 375.223 727.882L387.526 715.396C387.588 714.733 387.629 711.798 387.629 711.124L387.629 651.258C387.619 639.685 380.881 629.222 369.4 629.222ZM373.423 703.274C373.423 703.761 373.402 707.38 373.351 707.847L364.956 716.101C364.483 716.143 360.955 716.174 360.471 716.174L317.358 716.112C317.358 716.112 315.146 716.122 314.405 716.112C308.387 716.029 306.896 716.153 304.591 717.024C303.84 717.304 301.721 718.476 301.721 718.476L301.752 698.141L301.752 659.876C301.752 659.399 301.773 652.689 301.824 652.223L311.154 641.863C311.617 641.822 315.67 641.791 316.144 641.791L360.43 641.791C368.618 641.791 373.423 647.701 373.423 660.581L373.423 703.274Z" fill="#F4F5FB"/>
<path d="M314.686 704.167L361.2 704.167L361.2 654.556L314.686 654.556L314.686 704.167ZM348.984 690.778L326.913 690.778L326.913 667.944L348.984 667.944L348.984 690.778Z" fill="#F4F5FB"/>
<path d="M1012.24 592H938.697C937.708 592 936.72 592.076 935.731 592.152L907.437 620.395C907.361 621.382 907.285 622.369 907.285 623.356V696.773V761.763C907.285 764.42 909.491 766.167 911.697 766.167C912.761 766.167 913.902 765.787 914.739 764.876L951.551 728.129H1012.17C1013.16 728.129 1014.15 728.053 1015.21 727.978L1043.5 699.734C1043.58 698.747 1043.66 697.76 1043.66 696.697V623.356C1043.66 606.046 1029.59 592 1012.24 592Z" fill="white"/>
<path d="M1018.07 592L934.087 592C933.109 592 932.14 592.051 931.182 592.144L902.196 619.444C902.113 620.39 902.052 621.366 902.052 622.332L902.052 693.337L902.052 693.347L902 782C902 782 917.951 763.827 923.175 757.732C926.648 753.682 932.542 747.433 938.456 742.931C945.298 737.72 958.405 738.408 958.405 738.408L1018.64 738.532C1019.62 738.532 1020.59 738.48 1021.55 738.398L1049.86 710.584C1049.95 709.628 1050 708.652 1050 707.675L1050 620.533C1050.01 603.779 1034.87 592 1018.07 592ZM1037.59 703.358C1037.59 704.222 1037.55 705.065 1037.47 705.907L1016.86 725.951C1016.02 726.023 1015.16 726.074 1014.31 726.074C1014.31 726.074 961.94 725.499 944.495 725.971C940.95 726.064 937.014 726.691 931.037 730.463C925.525 733.937 920.62 739.765 920.62 739.765L913.912 748.06L914.303 694.221L914.303 694.21L914.303 626.094C914.303 625.241 914.344 625.457 914.427 624.624L935.005 604.355C935.849 604.283 938.158 604.232 939.023 604.232L1014.22 604.232C1028.96 604.232 1037.6 615.271 1037.6 629.969L1037.6 703.358L1037.59 703.358Z" fill="#F4F5FB"/>
<path d="M1006.4 615.222L944.307 615.222C943.638 615.222 940.645 615.253 939.986 615.315L926.644 629.294C926.582 629.947 926.551 635.599 926.551 636.263L926.551 689.906L926.551 689.917L926.315 720.778C926.315 720.778 933.372 716.039 939.812 714.659C941.766 714.245 949.852 713.892 949.852 713.892L1006.47 713.975C1007.14 713.975 1011.57 713.944 1012.22 713.882L1024.53 701.396C1024.59 700.733 1024.63 697.798 1024.63 697.124L1024.63 637.258C1024.62 625.685 1017.88 615.222 1006.4 615.222ZM1010.42 689.274C1010.42 689.761 1010.4 693.38 1010.35 693.847L1001.96 702.101C1001.48 702.143 997.955 702.174 997.471 702.174L954.358 702.112C954.358 702.112 952.146 702.122 951.405 702.112C945.387 702.029 943.896 702.153 941.591 703.024C940.84 703.304 938.721 704.476 938.721 704.476L938.752 684.141L938.752 645.876C938.752 645.399 938.773 638.689 938.824 638.223L948.154 627.863C948.617 627.822 952.67 627.791 953.144 627.791L997.43 627.791C1005.62 627.791 1010.42 633.701 1010.42 646.581L1010.42 689.274Z" fill="#F4F5FB"/>
<path d="M951.686 690.167L998.2 690.167L998.2 640.556L951.686 640.556L951.686 690.167ZM985.984 676.778L963.913 676.778L963.913 653.944L985.984 653.944L985.984 676.778Z" fill="#F4F5FB"/>
<path d="M248.245 266H174.697C173.708 266 172.72 266.076 171.731 266.152L143.437 294.395C143.361 295.382 143.285 296.369 143.285 297.356V370.773V435.763C143.285 438.42 145.491 440.167 147.697 440.167C148.761 440.167 149.902 439.787 150.739 438.876L187.551 402.129H248.169C249.158 402.129 250.146 402.053 251.211 401.978L279.505 373.734C279.581 372.747 279.657 371.76 279.657 370.697V297.356C279.657 280.046 265.586 266 248.245 266Z" fill="white"/>
<path d="M254.067 266L170.087 266C169.109 266 168.14 266.051 167.182 266.144L138.196 293.444C138.113 294.39 138.052 295.366 138.052 296.332L138.052 367.337L138.052 367.347L138 456C138 456 153.951 437.827 159.175 431.732C162.648 427.682 168.542 421.433 174.456 416.931C181.298 411.72 194.405 412.408 194.405 412.408L254.644 412.532C255.623 412.532 256.592 412.48 257.55 412.398L285.856 384.584C285.948 383.628 286 382.652 286 381.675L286 294.533C286.01 277.779 270.873 266 254.067 266ZM273.594 377.358C273.594 378.222 273.552 379.065 273.47 379.907L252.862 399.951C252.017 400.023 251.161 400.074 250.306 400.074C250.306 400.074 197.94 399.499 180.495 399.971C176.95 400.064 173.014 400.691 167.037 404.463C161.525 407.937 156.62 413.765 156.62 413.765L149.912 422.06L150.303 368.221L150.303 368.21L150.303 300.094C150.303 299.241 150.344 299.457 150.427 298.624L171.005 278.355C171.849 278.283 174.158 278.232 175.023 278.232L250.224 278.232C264.959 278.232 273.604 289.271 273.604 303.969L273.604 377.358L273.594 377.358Z" fill="#ed6c71"/>
<path d="M242.4 289.222L180.307 289.222C179.638 289.222 176.645 289.253 175.986 289.315L162.644 303.294C162.582 303.947 162.551 309.599 162.551 310.263L162.551 363.906L162.551 363.917L162.315 394.778C162.315 394.778 169.372 390.039 175.812 388.659C177.766 388.245 185.852 387.892 185.852 387.892L242.472 387.975C243.141 387.975 247.575 387.944 248.223 387.882L260.526 375.396C260.588 374.733 260.629 371.798 260.629 371.124L260.629 311.258C260.619 299.685 253.881 289.222 242.4 289.222ZM246.423 363.274C246.423 363.761 246.402 367.38 246.351 367.847L237.956 376.101C237.483 376.143 233.955 376.174 233.471 376.174L190.358 376.112C190.358 376.112 188.146 376.122 187.405 376.112C181.387 376.029 179.896 376.153 177.591 377.024C176.84 377.304 174.721 378.476 174.721 378.476L174.752 358.141L174.752 319.876C174.752 319.399 174.773 312.689 174.824 312.223L184.154 301.863C184.617 301.822 188.67 301.791 189.144 301.791L233.43 301.791C241.618 301.791 246.423 307.701 246.423 320.581L246.423 363.274Z" fill="#ed6c71"/>
<path d="M187.686 364.167L234.2 364.167L234.2 314.556L187.686 314.556L187.686 364.167ZM221.984 350.778L199.913 350.778L199.913 327.944L221.984 327.944L221.984 350.778Z" fill="#ed6c71"/>
<path d="M7.85945 400H-8.85945C-9.08422 400 -9.30898 400.017 -9.53374 400.035L-15.9654 406.521C-15.9827 406.748 -16 406.975 -16 407.201V424.063V438.989C-16 439.599 -15.4986 440 -14.9972 440C-14.7552 440 -14.4958 439.913 -14.3056 439.704L-5.93754 431.264H7.84216C8.06693 431.264 8.29169 431.247 8.53374 431.229L14.9654 424.743C14.9827 424.516 15 424.289 15 424.045V407.201C15 403.226 11.8014 400 7.85945 400Z" fill="white"/>
<path d="M242.859 87H226.141C225.916 87 225.691 87.0174 225.466 87.0349L219.035 93.5214C219.017 93.748 219 93.9747 219 94.2014V111.063V125.989C219 126.599 219.501 127 220.003 127C220.245 127 220.504 126.913 220.694 126.704L229.062 118.264H242.842C243.067 118.264 243.292 118.247 243.534 118.229L249.965 111.743C249.983 111.516 250 111.289 250 111.045V94.2014C250 90.2258 246.801 87 242.859 87Z" fill="#ed6c71"/>
</g>
</svg>
