<svg width="170" height="56" viewBox="0 0 170 56" fill="none" xmlns="http://www.w3.org/2000/svg">
<path d="M50.5651 11.654C50.5651 12.1594 50.6031 12.6195 50.6792 13.0344C50.7552 13.4493 50.892 13.8113 51.0745 14.1055C51.2568 14.4072 51.4925 14.641 51.7814 14.807C52.0702 14.9654 52.4275 15.0484 52.8608 15.0484C53.6285 15.0484 54.1987 14.7843 54.5635 14.2563C54.9284 13.7359 55.1108 12.8608 55.1108 11.654C55.1108 11.1713 55.0804 10.7262 55.012 10.3114C54.9436 9.89652 54.822 9.54205 54.6472 9.24032C54.4647 8.93107 54.2366 8.68968 53.9478 8.51617C53.659 8.34271 53.2941 8.25974 52.8608 8.25974C52.0855 8.25974 51.5153 8.53129 51.1352 9.07433C50.7552 9.62497 50.5651 10.4849 50.5651 11.654ZM46.8632 10.6509H48.3683C48.5051 9.28554 48.9536 8.23711 49.7138 7.49036C50.4739 6.74362 51.5153 6.37402 52.8456 6.37402C53.6362 6.37402 54.3126 6.50225 54.8904 6.75871C55.4681 7.01517 55.9394 7.36968 56.3119 7.83734C56.6843 8.29745 56.958 8.85559 57.1404 9.50427C57.3152 10.153 57.4065 10.8696 57.4065 11.654C57.4065 13.3361 57.0188 14.641 56.2435 15.5612C55.4681 16.4815 54.3431 16.9341 52.8608 16.9341C52.169 16.9341 51.5533 16.8284 51.0289 16.6173C50.5043 16.4061 50.0558 16.1119 49.6758 15.7272C49.3033 15.3425 49.0068 14.8824 48.7864 14.3393C48.566 13.7962 48.4291 13.2004 48.3683 12.5365H46.8632V16.7379H44.6968V6.57768H46.8632V10.6509Z" fill="#303134"/>
<path d="M64.3017 10.9151H61.109V16.7382H58.9502V9.1123H64.3017V10.9151Z" fill="#303134"/>
<path d="M67.0607 12.929C67.0607 13.2534 67.0988 13.5551 67.1671 13.8342C67.2355 14.1133 67.3344 14.3546 67.4788 14.5658C67.6232 14.777 67.8057 14.943 68.0261 15.0637C68.2542 15.1919 68.5278 15.2522 68.8471 15.2522C70.0329 15.2522 70.6334 14.4829 70.6334 12.929C70.6334 12.5896 70.603 12.2803 70.5346 11.9937C70.4738 11.7071 70.375 11.4657 70.2306 11.2545C70.0861 11.0508 69.9037 10.8849 69.6756 10.7717C69.4476 10.651 69.1664 10.5983 68.8471 10.5983C68.2921 10.5983 67.8589 10.7793 67.5396 11.1489C67.2204 11.5109 67.0607 12.1069 67.0607 12.929ZM64.9551 12.929C64.9551 11.6769 65.2896 10.6888 65.9661 9.97218C66.6351 9.25563 67.6004 8.89355 68.8471 8.89355C69.5008 8.89355 70.0709 8.9992 70.5574 9.20281C71.0439 9.4065 71.4544 9.68558 71.7737 10.0477C72.0929 10.4173 72.3362 10.8396 72.4958 11.3299C72.6554 11.8202 72.7391 12.3482 72.7391 12.929C72.7391 13.5551 72.6478 14.1133 72.473 14.6111C72.2982 15.1089 72.0473 15.5313 71.7128 15.8783C71.386 16.2252 70.9755 16.4892 70.4966 16.6778C70.0101 16.8588 69.4628 16.9494 68.8471 16.9494C68.1858 16.9494 67.608 16.8513 67.1216 16.6476C66.6351 16.444 66.2322 16.1649 65.9053 15.8029C65.586 15.4333 65.3428 15.0108 65.1907 14.5206C65.0312 14.0303 64.9551 13.5023 64.9551 12.929Z" fill="#303134"/>
<path d="M77.9161 10.5983C77.4524 10.5983 77.0875 10.6963 76.8367 10.9075C76.5858 11.1188 76.3882 11.4355 76.2513 11.873V14.8298C76.4186 14.9656 76.601 15.0787 76.8062 15.1542C77.0115 15.2296 77.2699 15.2673 77.5815 15.2673C78.2429 15.2673 78.737 15.0637 79.0563 14.6488C79.3831 14.2415 79.5428 13.5853 79.5428 12.6877C79.5428 12.0389 79.4212 11.5261 79.1703 11.1565C78.9194 10.7793 78.5014 10.5983 77.9161 10.5983ZM74.2065 9.11229H75.666L75.9168 10.0552H76.0917C76.3958 9.67045 76.7454 9.38385 77.1407 9.18776C77.5436 8.9916 78.0073 8.89355 78.5469 8.89355C79.5808 8.89355 80.3562 9.20281 80.8731 9.82132C81.39 10.4323 81.6484 11.4054 81.6484 12.7404C81.6484 13.3816 81.5648 13.9624 81.3975 14.4753C81.2303 14.9958 80.987 15.4408 80.6678 15.8104C80.3485 16.1875 79.9532 16.4742 79.4744 16.6703C79.0031 16.8664 78.4634 16.9644 77.8477 16.9644C77.5131 16.9644 77.2243 16.9342 76.9811 16.874C76.7378 16.806 76.4946 16.7231 76.2513 16.6175V19.6271H74.2065V9.11229Z" fill="#303134"/>
<path d="M88.9833 16.2705C88.6568 16.4968 88.2537 16.6628 87.79 16.7758C87.3263 16.8965 86.8474 16.9494 86.3534 16.9494C85.6843 16.9494 85.1297 16.8588 84.6736 16.6628C84.225 16.4666 83.8527 16.195 83.5639 15.833C83.275 15.4785 83.0698 15.0561 82.9405 14.5658C82.8189 14.0756 82.7505 13.5324 82.7505 12.929C82.7505 11.6618 83.0698 10.6737 83.6931 9.96466C84.3243 9.25563 85.2358 8.89355 86.4376 8.89355C87.0225 8.89355 87.5013 8.93886 87.8817 9.0369C88.2537 9.12742 88.5886 9.24811 88.8849 9.39137L88.3833 11.0131C88.1325 10.9075 87.8817 10.8321 87.6309 10.7793C87.3801 10.7265 87.0906 10.6963 86.7641 10.6963C86.148 10.6963 85.6768 10.8698 85.3502 11.2243C85.0237 11.5788 84.8562 12.1446 84.8562 12.929C84.8562 13.2382 84.9017 13.5324 84.9774 13.7965C85.054 14.0604 85.1752 14.2943 85.3427 14.4979C85.5101 14.7016 85.7155 14.86 85.9738 14.9807C86.2246 15.0938 86.5209 15.1542 86.8626 15.1542C87.2732 15.1542 87.6006 15.1164 87.8363 15.041C88.0795 14.9731 88.3 14.8751 88.5196 14.7468L88.9833 16.2705Z" fill="#303134"/>
<path d="M93.0352 13.5702H92.3131V16.7382H90.2681V9.1123H92.3131V12.4086L92.9746 12.1371L94.9355 9.1123H97.1472C96.8055 9.58003 96.4705 10.0477 96.144 10.5153C95.8175 10.983 95.4825 11.4506 95.156 11.9183L94.1907 12.5519L95.2166 13.178C95.5818 13.7814 95.9614 14.3697 96.3418 14.958C96.7222 15.5388 97.0942 16.1348 97.467 16.7382H95.0954L93.0352 13.5702Z" fill="#303134"/>
<path d="M103.579 13.2911L103.662 12.0012L102.743 13.2836L99.7095 16.7382H98.4858V9.1123H100.531V12.7027L100.462 13.7437H100.637C100.751 13.5778 100.873 13.4042 100.995 13.2232C101.116 13.0422 101.238 12.8611 101.351 12.7027L104.392 9.1123H105.623V16.7382H103.579V13.2911Z" fill="#303134"/>
<path d="M110.153 6.396C110.23 6.80332 110.366 7.0824 110.556 7.22572C110.754 7.36902 111.005 7.44446 111.316 7.44446C111.644 7.44446 111.894 7.36903 112.085 7.21817C112.282 7.06731 112.411 6.80332 112.487 6.41108L114.015 6.80332C113.886 7.44446 113.567 7.91966 113.057 8.244C112.556 8.56082 111.947 8.71921 111.248 8.71921C110.906 8.71921 110.579 8.68904 110.275 8.62117C109.964 8.5533 109.689 8.44013 109.431 8.28926C109.18 8.13086 108.96 7.93474 108.778 7.69337C108.603 7.452 108.473 7.15028 108.405 6.80332L110.153 6.396ZM112.609 13.2901L112.692 12.0004L111.772 13.2826L108.747 16.7372H107.516V9.11146H109.561V12.7018L109.493 13.7427H109.667C109.781 13.5768 109.902 13.4033 110.024 13.2223C110.146 13.0412 110.268 12.8602 110.381 12.7018L113.429 9.11146H114.654V16.7372H112.609V13.2901Z" fill="#303134"/>
<path d="M50.1545 28.3309H46.9619V34.154H44.7954V26.5356H50.1545V28.3309Z" fill="#303134"/>
<path d="M52.9146 30.3523C52.9146 30.6692 52.9451 30.9708 53.0134 31.25C53.0819 31.5291 53.1883 31.778 53.3327 31.9816C53.4696 32.1928 53.652 32.3588 53.88 32.487C54.1081 32.6077 54.3741 32.6756 54.701 32.6756C55.8869 32.6756 56.4873 31.8987 56.4873 30.3523C56.4873 30.0129 56.4494 29.6961 56.3885 29.417C56.3278 29.1304 56.2213 28.8815 56.0845 28.6703C55.9401 28.4666 55.7576 28.3007 55.5296 28.1875C55.294 28.0744 55.0203 28.014 54.701 28.014C54.1461 28.014 53.7052 28.1951 53.3936 28.5647C53.0743 28.9343 52.9146 29.5302 52.9146 30.3523ZM50.8091 30.3523C50.8091 29.0927 51.1435 28.1045 51.8201 27.388C52.489 26.6714 53.4543 26.3169 54.701 26.3169C55.3547 26.3169 55.9248 26.4149 56.4113 26.6186C56.8979 26.8223 57.3007 27.1089 57.6276 27.471C57.9469 27.8331 58.1901 28.2554 58.3498 28.7457C58.5094 29.236 58.593 29.7716 58.593 30.3523C58.593 30.9708 58.5018 31.5291 58.327 32.0269C58.1521 32.5247 57.8936 32.9471 57.5667 33.2941C57.2323 33.641 56.8294 33.9126 56.3429 34.0936C55.8641 34.2747 55.3168 34.3727 54.701 34.3727C54.0397 34.3727 53.462 34.2671 52.9755 34.0635C52.489 33.8598 52.0785 33.5807 51.7592 33.2187C51.4399 32.8566 51.1967 32.4267 51.0447 31.9364C50.8851 31.4536 50.8091 30.9181 50.8091 30.3523Z" fill="#303134"/>
<path d="M65.928 33.6863C65.5936 33.9126 65.1983 34.0785 64.7347 34.1992C64.2709 34.3124 63.792 34.3727 63.2903 34.3727C62.629 34.3727 62.0741 34.2747 61.618 34.0785C61.1619 33.8899 60.7971 33.6109 60.5082 33.2564C60.2193 32.8943 60.0141 32.4719 59.8849 31.9816C59.7557 31.4913 59.6948 30.9483 59.6948 30.3523C59.6948 29.0851 60.0065 28.0895 60.6374 27.3805C61.2683 26.6715 62.1805 26.3169 63.3816 26.3169C63.9669 26.3169 64.4457 26.3622 64.8182 26.4527C65.1983 26.5432 65.5328 26.6639 65.8216 26.8072L65.3275 28.4365C65.0691 28.3309 64.8182 28.2479 64.575 28.1951C64.3241 28.1423 64.0353 28.1122 63.7008 28.1122C63.0851 28.1122 62.6138 28.2931 62.2946 28.6401C61.9677 28.9946 61.8005 29.5679 61.8005 30.3523C61.8005 30.6616 61.8384 30.9483 61.9221 31.2122C61.9981 31.4763 62.1197 31.7176 62.2869 31.9137C62.4466 32.1174 62.6594 32.2833 62.9103 32.3965C63.1687 32.5096 63.4652 32.5699 63.8072 32.5699C64.2178 32.5699 64.537 32.5322 64.7803 32.4644C65.0159 32.389 65.2439 32.2908 65.4567 32.1626L65.928 33.6863Z" fill="#303134"/>
<path d="M70.5496 30.7597L70.8765 31.9741H71.0209L71.3021 30.7597L72.602 26.5356H74.6925L72.1459 33.4298C71.9331 33.9956 71.7279 34.5085 71.5378 34.9686C71.3477 35.4212 71.1426 35.8059 70.9221 36.1302C70.6941 36.447 70.4432 36.6884 70.162 36.8619C69.8883 37.0278 69.5614 37.1108 69.1813 37.1108C68.9229 37.1108 68.6797 37.0957 68.4516 37.0504C68.2235 37.0052 68.0259 36.9373 67.8587 36.8544L68.2844 35.2854C68.4288 35.3307 68.5809 35.3608 68.7404 35.3608C68.8773 35.3608 69.0065 35.3458 69.1357 35.3156C69.2573 35.2854 69.379 35.2326 69.4854 35.1496C69.5919 35.0667 69.6907 34.946 69.7819 34.7951C69.8807 34.6518 69.9567 34.4482 70.0251 34.1992L66.5132 26.5356H68.9913L70.5496 30.7597Z" fill="#303134"/>
<path d="M80.0901 32.4568V28.2329H78.1746C78.1518 28.61 78.1137 29.0022 78.0606 29.4095C77.9997 29.8093 77.9237 30.2016 77.8401 30.5862C77.7488 30.9558 77.65 31.3104 77.5284 31.6422C77.4144 31.9741 77.2852 32.2381 77.1484 32.4568H80.0901ZM83.3664 35.8813H81.9373L81.6712 34.154H75.8485L75.5672 35.8813H74.1382V32.3512H75.1036C75.1871 32.2381 75.3087 32.0419 75.4608 31.7705C75.6128 31.4989 75.7573 31.1368 75.9017 30.6692C76.0386 30.2016 76.1602 29.6283 76.2665 28.9494C76.3654 28.263 76.4262 27.4635 76.4338 26.5356H82.1426V32.3512H83.3664V35.8813Z" fill="#303134"/>
<path d="M87.4554 32.6453C87.9116 32.6453 88.276 32.5398 88.5495 32.321C88.823 32.1098 89.0284 31.8911 89.1504 31.6572V30.7823C89.1049 30.7671 89.0284 30.7445 88.9223 30.7294C88.823 30.7068 88.7094 30.6917 88.5874 30.6691C88.4662 30.6464 88.3442 30.6389 88.223 30.6239C88.1009 30.6163 87.9873 30.6088 87.8956 30.6088C87.3713 30.6088 86.9766 30.7068 86.7258 30.8954C86.4666 31.0839 86.3454 31.3178 86.3454 31.5969C86.3454 31.9438 86.4439 32.2078 86.6416 32.3814C86.8394 32.5548 87.1129 32.6453 87.4554 32.6453ZM84.7792 27.0561C85.2202 26.8599 85.7521 26.7015 86.3984 26.5733C87.0372 26.4526 87.6911 26.3848 88.3753 26.3848C88.9147 26.3848 89.3633 26.4526 89.7277 26.5733C90.093 26.7015 90.3892 26.8826 90.6021 27.1164C90.815 27.3577 90.9674 27.6444 91.0583 27.9763C91.1492 28.3082 91.203 28.6778 91.203 29.0851C91.203 29.5829 91.1794 30.0656 91.1416 30.5559C91.1037 31.0387 91.081 31.5516 91.081 32.0947C91.081 32.4568 91.1037 32.8188 91.1567 33.1658C91.203 33.5127 91.2863 33.8446 91.3924 34.169H89.7201L89.386 33.0376H89.211C88.9602 33.377 88.6337 33.6636 88.2457 33.905C87.8577 34.1464 87.3561 34.2671 86.7409 34.2671C86.3681 34.2671 86.0264 34.2142 85.7218 34.1087C85.418 34.003 85.152 33.8522 84.9315 33.6561C84.711 33.4524 84.5436 33.2186 84.4224 32.947C84.3003 32.6755 84.2397 32.3814 84.2397 32.0645C84.2397 31.2046 84.5284 30.5484 85.1066 30.1109C85.6839 29.6735 86.5659 29.4471 87.7517 29.4471C88.0176 29.4471 88.2911 29.4698 88.5646 29.5151C88.839 29.5603 89.0284 29.5905 89.1352 29.6131C89.1655 29.4094 89.1807 29.2359 89.1807 29.0851C89.1807 28.7155 89.0898 28.444 88.9072 28.2705C88.717 28.0969 88.3753 28.014 87.8653 28.014C87.394 28.014 86.9379 28.0668 86.4977 28.1799C86.0567 28.2931 85.6612 28.4288 85.3195 28.5948L84.7792 27.0561Z" fill="#303134"/>
<path d="M96.7754 28.014C96.3041 28.014 95.9464 28.1197 95.6881 28.3233C95.4373 28.5345 95.2395 28.8514 95.1023 29.2888V32.2531C95.2698 32.389 95.46 32.4945 95.6653 32.5699C95.8707 32.6454 96.1215 32.6831 96.4404 32.6831C97.1019 32.6831 97.5959 32.4794 97.9149 32.0721C98.2347 31.6573 98.3938 31.001 98.3938 30.1034C98.3938 29.4547 98.2726 28.9419 98.0218 28.5723C97.7786 28.2027 97.3603 28.014 96.7754 28.014ZM93.0581 26.5356H94.5174L94.7682 27.4785H94.9433C95.2471 27.0863 95.5972 26.7997 95.9994 26.6036C96.395 26.4074 96.8663 26.3169 97.4057 26.3169C98.44 26.3169 99.2151 26.6186 99.7319 27.2371C100.249 27.8481 100.507 28.8287 100.507 30.1638C100.507 30.7974 100.424 31.3782 100.256 31.8987C100.09 32.4115 99.8463 32.8566 99.5265 33.2337C99.2 33.6033 98.8044 33.8899 98.3332 34.0861C97.8619 34.2822 97.3148 34.3878 96.6988 34.3878C96.3723 34.3878 96.0836 34.3501 95.8404 34.2897C95.5972 34.2294 95.3455 34.1388 95.1023 34.0333V37.0429H93.0581V26.5356Z" fill="#303134"/>
<path d="M107.843 33.6863C107.509 33.9126 107.114 34.0785 106.65 34.1992C106.186 34.3124 105.708 34.3727 105.206 34.3727C104.544 34.3727 103.989 34.2747 103.534 34.0785C103.078 33.8899 102.705 33.6109 102.424 33.2564C102.135 32.8943 101.922 32.4719 101.8 31.9816C101.671 31.4913 101.61 30.9483 101.61 30.3523C101.61 29.0851 101.922 28.0895 102.552 27.3805C103.184 26.6715 104.096 26.3169 105.297 26.3169C105.883 26.3169 106.361 26.3622 106.733 26.4527C107.114 26.5432 107.448 26.6639 107.737 26.8072L107.243 28.4365C106.984 28.3309 106.733 28.2479 106.49 28.1951C106.239 28.1423 105.951 28.1122 105.616 28.1122C105.001 28.1122 104.529 28.2931 104.202 28.6401C103.875 28.9946 103.716 29.5679 103.716 30.3523C103.716 30.6616 103.753 30.9483 103.83 31.2122C103.913 31.4763 104.035 31.7176 104.194 31.9137C104.362 32.1174 104.575 32.2833 104.826 32.3965C105.076 32.5096 105.38 32.5699 105.723 32.5699C106.126 32.5699 106.452 32.5322 106.688 32.4644C106.931 32.389 107.159 32.2908 107.372 32.1626L107.843 33.6863Z" fill="#303134"/>
<path d="M115.49 28.3309H113.103V34.154H110.968V28.3309H108.588V26.5356H115.49V28.3309Z" fill="#303134"/>
<path d="M118.577 32.5996C118.773 32.6373 118.941 32.66 119.078 32.6751C119.222 32.6826 119.389 32.6826 119.587 32.6826C120.249 32.6826 120.712 32.6071 120.971 32.4488C121.229 32.2904 121.358 32.0565 121.358 31.7549C121.358 31.4833 121.244 31.2646 121.016 31.0986C120.796 30.9251 120.385 30.8421 119.793 30.8421H118.577V32.5996ZM119.823 29.6353C120.21 29.6353 120.53 29.5598 120.773 29.4166C121.016 29.2657 121.137 29.0695 121.137 28.8282C121.137 28.5642 121.031 28.3605 120.819 28.2172C120.613 28.0739 120.234 27.9985 119.686 27.9985C119.496 27.9985 119.329 28.006 119.207 28.0136C119.078 28.0211 118.964 28.0287 118.858 28.0437C118.812 28.0437 118.766 28.0437 118.705 28.0512C118.652 28.0512 118.607 28.0589 118.577 28.0589V29.6353H119.823ZM116.569 26.5352C116.972 26.505 117.444 26.4748 117.976 26.4446C118.515 26.4145 119.101 26.3994 119.746 26.3994C120.956 26.3994 121.814 26.5578 122.323 26.8821C122.826 27.199 123.084 27.6741 123.084 28.3002C123.084 28.6622 122.97 29.0017 122.742 29.3336C122.521 29.6655 122.172 29.9069 121.693 30.0728V30.1859C122.301 30.3141 122.742 30.5329 123.015 30.8346C123.297 31.1439 123.433 31.5361 123.433 32.0188C123.433 32.7731 123.114 33.3388 122.468 33.7159C121.822 34.0931 120.803 34.2817 119.397 34.2817C118.933 34.2817 118.454 34.2741 117.938 34.244C117.429 34.2214 116.972 34.1912 116.569 34.1535V26.5352Z" fill="#303134"/>
<path d="M128.382 27.9085C127.781 27.9085 127.332 28.0744 127.036 28.3988C126.748 28.7231 126.572 29.138 126.527 29.6358H129.834C129.871 29.1078 129.773 28.6854 129.537 28.3761C129.309 28.0669 128.921 27.9085 128.382 27.9085ZM131.453 33.4525C131.126 33.7089 130.678 33.9201 130.107 34.1011C129.53 34.2822 128.921 34.3727 128.267 34.3727C126.953 34.3727 125.988 34.0106 125.372 33.2941C124.755 32.5775 124.452 31.5969 124.452 30.3523C124.452 29.0248 124.794 28.0216 125.486 27.3352C126.178 26.6563 127.158 26.3169 128.412 26.3169C128.823 26.3169 129.226 26.3622 129.628 26.4678C130.031 26.5658 130.381 26.7393 130.693 26.9732C131.004 27.2145 131.263 27.5313 131.453 27.9311C131.643 28.3384 131.734 28.8287 131.734 29.417C131.734 29.6207 131.719 29.847 131.696 30.0884C131.673 30.3298 131.635 30.5787 131.575 30.8426H126.451C126.504 31.4989 126.694 31.9892 127.029 32.2984C127.371 32.6152 127.918 32.7736 128.678 32.7736C129.134 32.7736 129.545 32.7057 129.909 32.5775C130.282 32.4493 130.556 32.3135 130.753 32.1778L131.453 33.4525Z" fill="#303134"/>
<path d="M138.31 31.2047H135.399V34.154H133.354V26.5356H135.399V29.3642H138.31V26.5356H140.362V34.154H138.31V31.2047Z" fill="#303134"/>
<path d="M147.211 31.2047H144.3V34.154H142.255V26.5356H144.3V29.3642H147.211V26.5356H149.264V34.154H147.211V31.2047Z" fill="#303134"/>
<path d="M158.925 26.5356H160.97V34.154H158.925V26.5356ZM153.201 32.4569C153.392 32.4945 153.573 32.5172 153.748 32.5322C153.931 32.5474 154.098 32.5549 154.257 32.5549C154.783 32.5549 155.155 32.4719 155.383 32.306C155.603 32.1476 155.718 31.876 155.718 31.514C155.718 31.2047 155.603 30.9633 155.383 30.7899C155.155 30.6239 154.805 30.541 154.311 30.541C153.908 30.541 153.535 30.5787 153.201 30.6692V32.4569ZM153.201 29.2587C153.505 29.2134 153.801 29.1757 154.106 29.1606C154.402 29.138 154.653 29.1305 154.858 29.1305C155.413 29.1305 155.877 29.1908 156.25 29.3115C156.629 29.4322 156.934 29.5981 157.169 29.8093C157.397 30.028 157.572 30.2769 157.671 30.5712C157.777 30.8578 157.823 31.167 157.823 31.4989C157.823 31.9514 157.762 32.3512 157.626 32.6906C157.496 33.0377 157.283 33.3243 156.987 33.5581C156.683 33.7919 156.303 33.9654 155.831 34.0785C155.352 34.1992 154.775 34.252 154.098 34.252C153.452 34.252 152.897 34.2445 152.434 34.2294C151.97 34.2219 151.544 34.1992 151.156 34.169V26.5356H153.201V29.2587Z" fill="#303134"/>
<path d="M165.5 23.8203C165.576 24.2276 165.713 24.4992 165.911 24.6425C166.101 24.7934 166.352 24.8612 166.67 24.8612C166.989 24.8612 167.248 24.7859 167.438 24.635C167.628 24.4841 167.758 24.2201 167.841 23.8354L169.361 24.2276C169.232 24.8612 168.913 25.344 168.411 25.6608C167.902 25.9776 167.294 26.1436 166.595 26.1436C166.252 26.1436 165.926 26.1058 165.622 26.0379C165.317 25.97 165.036 25.8569 164.778 25.706C164.527 25.5476 164.306 25.3515 164.131 25.1102C163.949 24.8688 163.828 24.5746 163.759 24.2276L165.5 23.8203ZM167.955 30.7145L168.046 29.4171L167.119 30.6995L164.094 34.1541H162.862V26.5357H164.915V30.1186L164.838 31.1596H165.013C165.135 31.0012 165.249 30.8277 165.37 30.6391C165.492 30.4581 165.614 30.2845 165.728 30.1186L168.776 26.5357H170V34.1541H167.955V30.7145Z" fill="#303134"/>
<path d="M47.6082 48.1767L47.9275 49.3911H48.0719L48.3532 48.1767L49.653 43.9526H51.7434L49.2045 50.8468C48.9841 51.4201 48.7864 51.9331 48.5964 52.3856C48.4063 52.8382 48.1935 53.2229 47.9731 53.5472C47.745 53.864 47.4942 54.1129 47.2206 54.2789C46.9393 54.4448 46.6124 54.5353 46.2324 54.5353C45.9815 54.5353 45.7383 54.5126 45.5102 54.4674C45.2821 54.4221 45.0845 54.3619 44.9173 54.2713L45.343 52.7024C45.4874 52.7552 45.6394 52.7778 45.7915 52.7778C45.9283 52.7778 46.0651 52.7628 46.1867 52.7326C46.3159 52.7024 46.43 52.6496 46.5364 52.5666C46.6428 52.4837 46.7493 52.3705 46.8404 52.2197C46.9316 52.0688 47.0153 51.8651 47.0837 51.6162L43.5718 43.9526H46.0422L47.6082 48.1767Z" fill="#303134"/>
<path d="M57.6881 48.6217H54.7767V51.571H52.7319V43.9526H54.7767V46.7812H57.6881V43.9526H59.7406V51.571H57.6881V48.6217Z" fill="#303134"/>
<path d="M66.7268 48.1314L66.8104 46.8416L65.8906 48.1164L62.8652 51.571H61.6338V43.9526H63.6786V47.5356L63.6102 48.584H63.785C63.899 48.418 64.0206 48.2446 64.1422 48.056C64.2639 47.875 64.3855 47.7015 64.4995 47.5356L67.5401 43.9526H68.7716V51.571H66.7268V48.1314Z" fill="#303134"/>
<path d="M72.6704 50.0172C72.8604 50.0549 73.0352 50.0775 73.1721 50.0926C73.3165 50.1001 73.4837 50.1077 73.6814 50.1077C74.3427 50.1077 74.7988 50.0247 75.0572 49.8663C75.3157 49.7079 75.4449 49.4741 75.4449 49.1799C75.4449 48.9084 75.3385 48.682 75.1105 48.5161C74.89 48.3502 74.4796 48.2597 73.8867 48.2597H72.6704V50.0172ZM73.9095 47.0604C74.3047 47.0604 74.6164 46.9849 74.8596 46.834C75.1105 46.6832 75.2321 46.4871 75.2321 46.2457C75.2321 45.9818 75.1257 45.7781 74.9128 45.6347C74.7076 45.4915 74.3275 45.416 73.7802 45.416C73.5826 45.416 73.423 45.4235 73.3014 45.4311C73.1721 45.4386 73.0505 45.4537 72.944 45.4613C72.9061 45.4613 72.8604 45.4613 72.7996 45.4688C72.7388 45.4688 72.7008 45.4763 72.6704 45.4763V47.0604H73.9095ZM70.6636 43.9527C71.0664 43.9225 71.5302 43.8924 72.0699 43.8622C72.602 43.832 73.1949 43.8169 73.8411 43.8169C75.0497 43.8169 75.9087 43.9829 76.4103 44.2997C76.9197 44.6164 77.1781 45.0917 77.1781 45.7252C77.1781 46.0798 77.0641 46.4267 76.836 46.7511C76.6156 47.0829 76.2659 47.3319 75.787 47.4903V47.611C76.3875 47.7316 76.8284 47.9504 77.1097 48.2521C77.3833 48.5613 77.5278 48.9536 77.5278 49.4364C77.5278 50.1906 77.2009 50.7564 76.5623 51.1335C75.9162 51.5106 74.89 51.6992 73.4914 51.6992C73.0277 51.6992 72.5411 51.6917 72.0319 51.669C71.5226 51.6388 71.0664 51.6087 70.6636 51.571V43.9527Z" fill="#303134"/>
<path d="M82.4771 45.333C81.8766 45.333 81.4281 45.4914 81.1316 45.8157C80.8428 46.14 80.6679 46.555 80.6223 47.0603H83.929C83.967 46.5248 83.8681 46.1024 83.6325 45.7931C83.3968 45.4838 83.0168 45.333 82.4771 45.333ZM85.5484 50.877C85.2211 51.1259 84.7649 51.3446 84.1952 51.5181C83.6249 51.6992 83.0168 51.7897 82.363 51.7897C81.048 51.7897 80.0826 51.4351 79.4669 50.7111C78.8512 50.002 78.5396 49.0139 78.5396 47.7693C78.5396 46.4418 78.8891 45.4386 79.5809 44.7598C80.2726 44.0733 81.2457 43.7339 82.5075 43.7339C82.918 43.7339 83.3208 43.7867 83.7237 43.8848C84.119 43.9904 84.4763 44.1563 84.7876 44.3977C85.0999 44.6315 85.3507 44.9483 85.5409 45.3556C85.7302 45.7554 85.8295 46.2457 85.8295 46.8416C85.8295 47.0452 85.8144 47.264 85.7917 47.5054C85.7689 47.7467 85.7226 48.0032 85.6696 48.2596H80.5463C80.5995 48.9234 80.7895 49.4061 81.1241 49.723C81.4585 50.0397 82.0134 50.1906 82.7736 50.1906C83.2296 50.1906 83.6401 50.1303 84.005 49.9945C84.3702 49.8662 84.6513 49.7305 84.8491 49.5947L85.5484 50.877Z" fill="#303134"/>
<path d="M91.1417 45.431C90.6704 45.431 90.3136 45.5367 90.0552 45.7403C89.8045 45.9515 89.6067 46.2759 89.4695 46.7058V49.6701C89.637 49.8059 89.8196 49.9115 90.0249 49.9869C90.2303 50.0699 90.4887 50.1076 90.8 50.1076C91.4691 50.1076 91.9555 49.904 92.2821 49.4891C92.6019 49.0743 92.7609 48.4256 92.7609 47.5204C92.7609 46.8717 92.6397 46.3664 92.389 45.9892C92.1457 45.6196 91.7275 45.431 91.1417 45.431ZM87.4253 43.9526H88.8846L89.1354 44.8955H89.3104C89.6143 44.5108 89.9635 44.2167 90.3666 44.0205C90.7622 43.8319 91.2335 43.7339 91.7653 43.7339C92.7988 43.7339 93.5747 44.0431 94.0915 44.6541C94.6082 45.2726 94.8666 46.2457 94.8666 47.5808C94.8666 48.2219 94.7833 48.7952 94.6234 49.3156C94.4567 49.836 94.2127 50.2811 93.8861 50.6507C93.5672 51.0203 93.1716 51.3069 92.7003 51.5031C92.2215 51.7067 91.682 51.8047 91.066 51.8047C90.7319 51.8047 90.4499 51.7746 90.2067 51.7067C89.9559 51.6464 89.7127 51.5634 89.4695 51.4578V54.4599H87.4253V43.9526Z" fill="#303134"/>
<path d="M102.203 51.1033C101.875 51.3296 101.481 51.4955 101.017 51.6162C100.553 51.7293 100.074 51.7897 99.5727 51.7897C98.9112 51.7897 98.3482 51.6917 97.8996 51.4955C97.4434 51.3069 97.0715 51.0278 96.7904 50.6734C96.5009 50.3113 96.2888 49.8889 96.1668 49.3986C96.0372 48.9159 95.9766 48.3728 95.9766 47.7693C95.9766 46.5021 96.2888 45.514 96.9191 44.7975C97.5503 44.0884 98.4626 43.7339 99.6635 43.7339C100.248 43.7339 100.727 43.7792 101.1 43.8697C101.481 43.9602 101.815 44.0808 102.103 44.2242L101.609 45.8534C101.351 45.7479 101.1 45.6649 100.857 45.6121C100.606 45.5592 100.317 45.5367 99.9825 45.5367C99.3673 45.5367 98.896 45.7101 98.5686 46.0647C98.2421 46.4191 98.0822 46.9849 98.0822 47.7693C98.0822 48.0786 98.1201 48.3653 98.1967 48.6292C98.28 48.9008 98.402 49.1346 98.5611 49.3382C98.7285 49.5419 98.9415 49.7003 99.1923 49.8135C99.443 49.9342 99.7469 49.9869 100.089 49.9869C100.492 49.9869 100.819 49.9492 101.055 49.8813C101.298 49.8059 101.526 49.7078 101.739 49.5796L102.203 51.1033Z" fill="#303134"/>
<path d="M108.58 48.1314L108.671 46.8416L107.751 48.1164L104.718 51.571H103.487V43.9526H105.539V47.5356L105.463 48.584H105.638C105.76 48.418 105.874 48.2446 106.003 48.056C106.124 47.875 106.239 47.7015 106.36 47.5356L109.401 43.9526H110.632V51.571H108.58V48.1314Z" fill="#303134"/>
<path d="M118.606 45.7479H116.227V51.571H114.091V45.7479H111.705V43.9526H118.606V45.7479Z" fill="#303134"/>
<path d="M123.267 45.333C122.658 45.333 122.21 45.4914 121.921 45.8157C121.625 46.14 121.457 46.555 121.404 47.0603H124.711C124.749 46.5248 124.65 46.1024 124.422 45.7931C124.186 45.4838 123.799 45.333 123.267 45.333ZM126.338 50.877C126.003 51.1259 125.554 51.3446 124.985 51.5181C124.414 51.6992 123.799 51.7897 123.145 51.7897C121.829 51.7897 120.864 51.4351 120.249 50.7111C119.633 50.002 119.329 49.0139 119.329 47.7693C119.329 46.4418 119.678 45.4386 120.37 44.7598C121.062 44.0733 122.035 43.7339 123.29 43.7339C123.699 43.7339 124.11 43.7867 124.506 43.8848C124.909 43.9904 125.266 44.1563 125.577 44.3977C125.889 44.6315 126.14 44.9483 126.33 45.3556C126.52 45.7554 126.611 46.2457 126.611 46.8416C126.611 47.0452 126.604 47.264 126.573 47.5054C126.551 47.7467 126.512 48.0032 126.451 48.2596H121.335C121.382 48.9234 121.571 49.4061 121.914 49.723C122.248 50.0397 122.796 50.1906 123.556 50.1906C124.012 50.1906 124.429 50.1303 124.794 49.9945C125.16 49.8662 125.441 49.7305 125.631 49.5947L126.338 50.877Z" fill="#303134"/>
<path d="M134.417 45.7479H132.038V51.571H129.901V45.7479H127.515V43.9526H134.417V45.7479Z" fill="#303134"/>
<path d="M32.1848 26.5669H24.1652L24.1272 39.797C24.1272 44.2097 20.5241 47.7925 16.0772 47.7925C11.8052 47.7925 8.31605 44.4963 8.04239 40.3251H8.0576V26.5669H0.0380075L0.0076015 39.797C0.0076015 39.8423 0 39.88 0 39.9253C0 48.7354 7.19863 55.8785 16.0772 55.8785C24.7049 55.8785 31.7439 49.1276 32.1239 40.6569L32.1848 26.5669Z" fill="#303134"/>
<path d="M32.1696 15.9759L26.8105 10.6506L16.0924 21.2936L5.36666 10.6431L0 15.9683L12.094 27.9766V42.572H20.1136V27.9539L32.1696 15.9759Z" fill="#303134"/>
<path d="M13.4086 2.66263L16.0844 0L18.7677 2.66263L16.0844 5.31772L18.7677 7.98035L21.4511 5.31772L24.1268 7.98035L16.0844 15.9683L8.04199 7.98035L10.7253 5.31772L13.4086 7.98035L16.0844 5.31772L13.4086 2.66263Z" fill="#303134"/>
</svg>
